<svg width="75" height="75" viewBox="0 0 75 75" fill="none" xmlns="http://www.w3.org/2000/svg">
<g clip-path="url(#clip0_142_12)">
<path d="M38.1713 48.9591C44.8944 48.9591 50.3446 43.509 50.3446 36.7859C50.3446 30.0627 44.8944 24.6126 38.1713 24.6126C31.4482 24.6126 25.998 30.0627 25.998 36.7859C25.998 43.509 31.4482 48.9591 38.1713 48.9591Z" fill="#FFB6B6"/>
<path d="M31.1827 50.7592L30.6328 45.2L41.6151 43.1464L48.1 58.9359L36.8218 71.9058L28.7861 56.1164L31.1827 50.7592Z" fill="#FFB6B6"/>
<path d="M30.456 47.9827L32.857 48.5252C32.857 48.5252 30.9696 42.5401 31.6102 41.9687C32.2509 41.3973 33.8208 42.2976 33.8208 42.2976L35.4705 44.1472L37.48 42.1013C37.48 42.1013 39.6616 39.3886 40.5158 38.6267C41.37 37.8649 39.9979 35.0369 39.9979 35.0369C39.9979 35.0369 52.6707 31.6197 47.9551 25.4731C47.9551 25.4731 45.1904 20.6538 44.2901 22.2237C43.3898 23.7936 42.3162 21.3003 42.3162 21.3003L39.0379 21.9237C39.0379 21.9237 32.5679 18.1088 26.427 26.27C20.2862 34.4312 30.456 47.9827 30.456 47.9827Z" fill="#2F2E41"/>
<path d="M61.0659 66.6753C54.4131 72.0691 46.1829 75 37.5001 75C29.5715 75 22.0193 72.5554 15.7021 68.0244C15.7134 67.906 15.7247 67.789 15.7346 67.672C15.9023 65.8393 16.0518 64.0573 16.1505 62.5799C16.5325 56.8435 29.9155 53.0202 29.9155 53.0202C29.9155 53.0202 29.9761 53.0808 30.0974 53.1866C30.8361 53.8351 33.8347 56.1866 39.0931 56.8435C43.782 57.43 45.3257 54.6485 45.7924 53.3163C45.9334 52.9102 45.9757 52.6382 45.9757 52.6382L59.7407 59.1386C60.6387 60.4215 60.9897 63.1847 61.0588 66.2904C61.0616 66.4187 61.0645 66.5456 61.0659 66.6753Z" fill="#6C63FF"/>
<path d="M64.0165 10.9836C56.9337 3.90084 47.5165 0 37.5 0C27.4835 0 18.0663 3.90084 10.9836 10.9836C3.90085 18.0663 0 27.4836 0 37.5C0 46.6424 3.24954 55.2857 9.20442 62.1104C9.77256 62.7632 10.3661 63.399 10.9836 64.0165C11.1288 64.1617 11.2754 64.3069 11.4234 64.4478C11.8181 64.8299 12.2199 65.2035 12.6288 65.5658C12.8769 65.7871 13.1278 66.0042 13.3816 66.2171C13.5804 66.3849 13.7791 66.5498 13.9807 66.7119C13.985 66.7162 13.9878 66.719 13.992 66.7218C14.5517 67.1729 15.1212 67.6071 15.7021 68.0244C22.0193 72.5555 29.5714 75 37.5 75C46.1828 75 54.4131 72.0691 61.0658 66.6753C61.6086 66.2354 62.14 65.7787 62.6617 65.3064C63.1226 64.8891 63.5738 64.4591 64.0165 64.0165C64.156 63.8769 64.2956 63.7359 64.4323 63.5935C64.813 63.2016 65.1823 62.8026 65.5432 62.398C71.6574 55.5296 75 46.7721 75 37.5C75 27.4836 71.0992 18.0663 64.0165 10.9836ZM65.4516 62.047C65.0992 62.4474 64.7383 62.8421 64.3689 63.227C63.7937 63.8261 63.2002 64.407 62.5869 64.9666C62.3543 65.1809 62.1189 65.3896 61.8806 65.5968C61.61 65.8322 61.3365 66.0634 61.0587 66.2904C58.8694 68.0879 56.4713 69.6386 53.907 70.9018C52.8933 71.4023 51.8543 71.8576 50.7914 72.265C46.6621 73.8496 42.1805 74.718 37.5 74.718C32.9831 74.718 28.6523 73.9088 24.6443 72.4286C22.9991 71.8224 21.4088 71.102 19.8821 70.2773C19.6579 70.156 19.4352 70.0334 19.2138 69.9079C18.0493 69.2481 16.9229 68.5277 15.8416 67.7495C15.8064 67.7242 15.7697 67.6974 15.7345 67.672C14.9648 67.1165 14.2162 66.5315 13.493 65.9168C13.2279 65.6927 12.9657 65.4657 12.7077 65.2331C12.2876 64.8595 11.8759 64.4746 11.4742 64.0799C10.7129 63.3341 9.98544 62.5573 9.29042 61.7495C3.67811 55.2307 0.281955 46.7552 0.281955 37.5C0.281955 16.9779 16.9779 0.281955 37.5 0.281955C58.0221 0.281955 74.718 16.9779 74.718 37.5C74.718 46.8976 71.2176 55.4915 65.4516 62.047Z" fill="#3F3D56"/>
</g>
<defs>
<clipPath id="clip0_142_12">
<rect width="75" height="75" fill="white"/>
</clipPath>
</defs>
</svg>
