<svg width="75" height="75" viewBox="0 0 75 75" fill="none" xmlns="http://www.w3.org/2000/svg">
<g clip-path="url(#clip0_98_129)">
<path d="M53.457 53.4375H34.707V28.0616L50.9194 36.9431L53.457 53.4375Z" fill="#2F2E41"/>
<path d="M38.1713 48.9588C44.8944 48.9588 50.3446 43.5086 50.3446 36.7855C50.3446 30.0624 44.8944 24.6123 38.1713 24.6123C31.4482 24.6123 25.998 30.0624 25.998 36.7855C25.998 43.5086 31.4482 48.9588 38.1713 48.9588Z" fill="#FFB6B6"/>
<path d="M31.1827 50.7589L30.6328 45.1997L41.6151 43.1461L48.1 58.9356L36.8218 71.9055L28.7861 56.1161L31.1827 50.7589Z" fill="#FFB6B6"/>
<path d="M64.4326 63.5935C64.2958 63.7359 64.1563 63.8769 64.0167 64.0164C63.574 64.4591 63.1229 64.8891 62.6619 65.3064C55.754 71.5714 46.8908 75 37.5003 75C28.8428 75 20.6337 72.086 13.9923 66.7218C13.988 66.719 13.9852 66.7162 13.981 66.7119C13.7794 66.5498 13.5806 66.3849 13.3818 66.2171C13.4171 66.1156 13.4551 66.0155 13.4932 65.9168C15.629 60.3524 19.8471 57.6302 22.4072 56.4389C23.676 55.8482 24.5374 55.6325 24.5374 55.6325L27.543 50.219L29.6591 54.1664L31.2183 57.0761L37.6159 69.0127L43.1351 55.2702L44.8452 51.0099L45.2836 49.9187L47.3687 51.5414L49.3424 53.0766L53.3165 53.9535L56.5407 54.6654L60.9194 55.6325C62.6901 57.0747 63.7672 59.8181 64.3692 63.227C64.3917 63.3482 64.4129 63.4709 64.4326 63.5935Z" fill="#6C63FF"/>
<path d="M31.7677 22.9516C33.2505 20.4608 35.9738 18.7518 38.8616 18.4999C41.7494 18.248 44.7275 19.4597 46.6192 21.6562C47.7464 22.965 48.4855 24.568 49.5843 25.9009C51.9488 28.7691 55.9808 30.4462 57.0137 34.017C57.4644 35.5752 57.2398 37.2388 57.0118 38.8448C56.8163 40.2213 56.6208 41.5978 56.4253 42.9744C56.2732 44.0456 56.1273 45.1749 56.529 46.1796C57.0003 47.3583 58.128 48.1303 58.8572 49.1694C60.0979 50.9374 60.0072 53.5261 58.6458 55.2029C58.0554 55.9302 57.2726 56.4786 56.6536 57.1817C56.0346 57.8848 55.5755 58.846 55.8347 59.7461C56.3314 61.4705 59.0356 61.884 59.3321 63.6537C59.4838 64.5586 58.8588 65.4621 58.04 65.8759C57.2211 66.2896 56.2572 66.3017 55.3465 66.191C51.885 65.7702 48.6801 63.6074 46.9948 60.5547C45.3094 57.5021 45.1867 53.6376 46.675 50.4842C47.8973 47.8942 50.1691 45.6056 50.1444 42.7418C50.1309 41.1816 49.4153 39.7244 48.7155 38.3299C47.2833 35.4757 45.8511 32.6215 44.4188 29.7673C43.6516 28.2384 42.7613 26.5909 41.1818 25.9341C39.9611 25.4264 38.5761 25.6233 37.2705 25.8309C35.9649 26.0386 34.5818 26.2407 33.3575 25.7419C32.1332 25.2431 31.2081 23.7612 31.7914 22.5748" fill="#2F2E41"/>
<path d="M33.9015 23.0816C31.5496 22.3075 28.9113 23.5503 27.3191 25.4465C25.7269 27.3426 24.9545 29.7753 24.2187 32.1395C23.7973 33.4937 23.3758 34.8479 22.9544 36.2021C22.5579 37.476 22.1614 38.7499 21.765 40.0238C21.2986 41.5222 20.8285 43.1141 21.2112 44.636C21.4879 45.7363 22.1998 46.7354 22.2152 47.8698C22.2312 49.0548 21.4891 50.0951 20.8387 51.0858C20.1884 52.0766 19.5779 53.2537 19.8877 54.3976C20.359 56.1375 22.7781 57.0938 22.6455 58.8916C22.6012 59.4915 22.2543 60.0465 22.2606 60.648C22.2686 61.4134 22.8678 62.0747 23.5699 62.3797C24.2719 62.6846 25.0617 62.7012 25.827 62.6877C28.1744 62.6465 30.5177 62.3677 32.8093 61.857C33.6909 61.6606 34.5875 61.4196 35.3214 60.893C36.0554 60.3664 36.6028 59.4939 36.5073 58.5956C36.3585 57.1959 34.8535 56.4018 34.0941 55.2167C33.3481 54.0526 33.3654 52.5776 33.0437 51.233C32.6017 49.385 31.5099 47.7716 30.6903 46.0573C27.6089 39.6124 28.6876 31.3975 33.3283 25.9665C33.7386 25.4863 34.1869 25.0032 34.358 24.3952C34.5292 23.7873 34.3086 23.0126 33.7138 22.8" fill="#2F2E41"/>
<path d="M64.0164 10.9835C56.9337 3.90084 47.5164 0 37.5 0C27.4836 0 18.0663 3.90084 10.9835 10.9835C3.90084 18.0663 0 27.4835 0 37.5C0 46.6424 3.24953 55.2857 9.20441 62.1104C9.77256 62.7631 10.3661 63.399 10.9836 64.0164C11.1288 64.1617 11.2754 64.3069 11.4234 64.4478C11.8181 64.8299 12.2199 65.2035 12.6288 65.5658C12.8769 65.7871 13.1278 66.0042 13.3816 66.2171C13.5804 66.3849 13.7791 66.5498 13.9807 66.7119C13.985 66.7162 13.9878 66.719 13.992 66.7218C20.6335 72.086 28.8426 75 37.5 75C46.8905 75 55.7538 71.5714 62.6617 65.3064C63.1227 64.8891 63.5738 64.4591 64.0165 64.0164C64.156 63.8769 64.2956 63.7359 64.4323 63.5935C64.813 63.2016 65.1823 62.8026 65.5432 62.398C71.6574 55.5296 75 46.7721 75 37.5C75 27.4835 71.0992 18.0663 64.0164 10.9835ZM65.4516 62.047C65.0992 62.4474 64.7383 62.8421 64.3689 63.227C63.7937 63.8261 63.2002 64.407 62.5869 64.9666C62.3543 65.1809 62.1189 65.3896 61.8806 65.5968C59.4742 67.6903 56.7956 69.4779 53.907 70.9018C52.8933 71.4023 51.8543 71.8576 50.7914 72.265C46.6621 73.8496 42.1805 74.718 37.5 74.718C32.9831 74.718 28.6523 73.9088 24.6443 72.4286C22.9991 71.8224 21.4088 71.102 19.8821 70.2773C19.6579 70.156 19.4351 70.0334 19.2138 69.9079C18.0493 69.2481 16.9229 68.5277 15.8416 67.7495C15.0338 67.1701 14.25 66.5597 13.493 65.9168C13.2279 65.6927 12.9657 65.4657 12.7077 65.2331C12.2876 64.8595 11.8759 64.4746 11.4742 64.0799C10.7129 63.3341 9.98544 62.5573 9.29042 61.7495C3.67811 55.2307 0.281955 46.7552 0.281955 37.5C0.281955 16.9779 16.9779 0.281955 37.5 0.281955C58.0221 0.281955 74.718 16.9779 74.718 37.5C74.718 46.8976 71.2176 55.4915 65.4516 62.047Z" fill="#3F3D56"/>
</g>
<defs>
<clipPath id="clip0_98_129">
<rect width="75" height="75" fill="white"/>
</clipPath>
</defs>
</svg>
