<svg width="460" height="460" viewBox="0 0 460 460" fill="none" xmlns="http://www.w3.org/2000/svg">
<path d="M230 460C357.025 460 460 357.025 460 230C460 102.975 357.025 0 230 0C102.975 0 0 102.975 0 230C0 357.025 102.975 460 230 460Z" fill="#F2F2F2"/>
<mask id="mask0_98_60" style="mask-type:luminance" maskUnits="userSpaceOnUse" x="1" y="0" width="460" height="460">
<path d="M231 460C358.025 460 461 357.025 461 230C461 102.975 358.025 0 231 0C103.975 0 1 102.975 1 230C1 357.025 103.975 460 231 460Z" fill="white"/>
</mask>
<g mask="url(#mask0_98_60)">
<path d="M211.859 94.2346L238.93 101.702C238.93 101.702 251.243 102.969 240.798 138.108C230.354 173.247 222.74 240.75 187.646 246.947C152.552 253.143 124.58 173.577 124.58 173.577L211.859 94.2346Z" fill="#090814"/>
<path d="M331.17 356.121L225.451 337.223L230.901 373.376L327.32 381.354C331.088 386.647 337.491 390.651 345.191 391.825C358.662 393.879 370.961 386.506 372.661 375.358C374.36 364.209 364.818 353.508 351.347 351.452C343.647 350.279 336.341 352.193 331.169 356.124L331.17 356.121Z" fill="#FFB6B6"/>
<path d="M179.378 227.289H189.913L196.234 237.307L250.344 343.386L225.494 379.529L189.916 343.283L179.378 227.289Z" fill="#6C63FF"/>
<path opacity="0.2" d="M179.378 227.289H189.913L196.234 237.307L250.344 343.386L225.494 379.529L189.916 343.283L179.378 227.289Z" fill="black"/>
<path d="M130.047 112.146C134.298 102.902 141.028 95.0178 149.489 89.3678C157.95 83.7178 167.811 80.5233 177.978 80.1391C188.145 79.7549 198.22 82.196 207.083 87.1913C215.947 92.1865 223.252 99.5406 228.189 108.437C233.125 117.333 235.5 127.424 235.048 137.588C234.597 147.752 231.337 157.592 225.632 166.016C219.926 174.439 211.997 181.117 202.726 185.307C193.454 189.496 183.203 191.035 173.11 189.751L164.379 203.048L191.064 305.96L134.072 249.206L103.66 185.476C103.66 185.476 120.542 176.807 133.282 164.138C128.487 156.415 125.681 147.623 125.117 138.549C124.552 129.476 126.247 120.404 130.048 112.146H130.047Z" fill="#FFB6B6"/>
<path d="M116.168 198.328L176.218 293.88L166.736 211.432L194.127 278.591L153.056 447.307L110.901 441.844L116.168 198.328Z" fill="#090814"/>
<path d="M96.6786 473.291L170.111 314.016L112.481 194.114L88.2649 206.432C88.2649 206.432 50.9618 218.826 68.7623 265.752C86.5629 312.679 77.3399 381.464 62.9649 392.159C48.5899 402.854 25.5654 436.946 25.5654 436.946C25.5654 436.946 30.8533 467.791 96.6764 473.292L96.6786 473.291Z" fill="#6C63FF"/>
<path d="M146.193 458.869L196.234 459.999L179.379 390.4L204.664 353.695C204.664 353.695 227.22 327.446 213.846 299.717L200.45 272.836L186.804 228.977L165.684 207.809L182.542 296.586L146.193 458.869Z" fill="#6C63FF"/>
<path d="M362.268 368.954L210.418 371.101L204.098 379.529L506.016 379.889L362.268 368.954Z" fill="#090814"/>
<path d="M509.754 405.227H160.128V424.211H509.754V405.227Z" fill="#D6D6E3"/>
<path d="M559.589 379.124H105.549V405.228H559.589V379.124Z" fill="#D6D6E3"/>
<path d="M505.429 380.869C506.955 380.868 508.443 380.39 509.683 379.5C510.923 378.611 511.852 377.355 512.341 375.909L549.448 266.496C549.818 265.405 549.924 264.241 549.759 263.101C549.593 261.961 549.161 260.876 548.496 259.935C547.831 258.994 546.952 258.224 545.933 257.687C544.913 257.15 543.781 256.862 542.629 256.847L398.367 254.906C396.878 254.897 395.422 255.339 394.189 256.172C392.955 257.006 392.003 258.193 391.456 259.578L349.596 368.019C349.174 369.115 349.021 370.296 349.152 371.463C349.283 372.629 349.693 373.747 350.347 374.722C351.002 375.697 351.882 376.499 352.912 377.062C353.943 377.624 355.094 377.93 356.268 377.953L505.427 380.866L505.429 380.869Z" fill="#6C63FF"/>
<path d="M277.14 370.337L171.424 351.44L176.873 387.593L273.293 395.571C277.06 400.863 283.464 404.868 291.163 406.042C304.635 408.096 316.933 400.723 318.633 389.575C320.333 378.426 310.791 367.725 297.319 365.669C289.62 364.495 282.315 366.409 277.141 370.341L277.14 370.337Z" fill="#FFB6B6"/>
<path d="M90.7959 283.344L145.401 382.373L177.22 385.7L192.242 354.857L170.157 336.92L131.44 237.076" fill="#6C63FF"/>
<path d="M238.931 101.702C238.931 101.702 178.19 15.1462 105.445 127.84C105.445 127.84 71.5572 138.167 44.7694 173.58C17.9816 208.992 35.481 316.553 87.709 324.805C87.709 324.805 65.4485 232.931 95.3335 214.655C125.218 196.378 170.481 142.457 170.481 142.457L171.254 142.775L229.596 115.704L238.93 101.702L238.931 101.702Z" fill="#090814"/>
</g>
</svg>
