<svg width="76" height="76" viewBox="0 0 76 76" fill="none" xmlns="http://www.w3.org/2000/svg">
<path d="M51.5566 37.3064C52.0025 36.8605 52.2531 36.2556 52.2531 35.6249C52.2531 34.9943 52.0025 34.3894 51.5566 33.9434C51.1106 33.4975 50.5058 33.2469 49.8751 33.2469C49.2444 33.2469 48.6395 33.4975 48.1936 33.9434L35.6251 46.5167L30.1816 41.0684C29.7356 40.6225 29.1308 40.372 28.5001 40.372C27.8694 40.372 27.2645 40.6225 26.8186 41.0684C26.3726 41.5144 26.1221 42.1193 26.1221 42.7499C26.1221 43.3806 26.3726 43.9855 26.8186 44.4314L33.9436 51.5564C34.1642 51.7776 34.4263 51.9531 34.7148 52.0728C35.0034 52.1926 35.3127 52.2542 35.6251 52.2542C35.9375 52.2542 36.2468 52.1926 36.5353 52.0728C36.8239 51.9531 37.086 51.7776 37.3066 51.5564L51.5566 37.3064Z" fill="#1258BF"/>
<path d="M66.5 66.5V21.375L45.125 0H19C16.4804 0 14.0641 1.00089 12.2825 2.78249C10.5009 4.56408 9.5 6.98044 9.5 9.5V66.5C9.5 69.0196 10.5009 71.4359 12.2825 73.2175C14.0641 74.9991 16.4804 76 19 76H57C59.5196 76 61.9359 74.9991 63.7175 73.2175C65.4991 71.4359 66.5 69.0196 66.5 66.5ZM45.125 14.25C45.125 16.1397 45.8757 17.9519 47.2119 19.2881C48.5481 20.6243 50.3603 21.375 52.25 21.375H61.75V66.5C61.75 67.7598 61.2496 68.968 60.3588 69.8588C59.468 70.7496 58.2598 71.25 57 71.25H19C17.7402 71.25 16.532 70.7496 15.6412 69.8588C14.7504 68.968 14.25 67.7598 14.25 66.5V9.5C14.25 8.24022 14.7504 7.03204 15.6412 6.14124C16.532 5.25044 17.7402 4.75 19 4.75H45.125V14.25Z" fill="#1258BF"/>
</svg>
