<svg width="76" height="76" viewBox="0 0 76 76" fill="none" xmlns="http://www.w3.org/2000/svg">
<path d="M14.725 3.325C14.9462 3.03003 15.2331 2.79063 15.5629 2.62574C15.8926 2.46084 16.2563 2.375 16.625 2.375H59.375C59.7437 2.375 60.1074 2.46084 60.4371 2.62574C60.7669 2.79063 61.0538 3.03003 61.275 3.325L75.411 22.2015C76.1188 23.0802 76.152 24.339 75.4585 25.2605L39.9 72.675C39.6788 72.97 39.3919 73.2094 39.0621 73.3743C38.7324 73.5392 38.3687 73.625 38 73.625C37.6313 73.625 37.2677 73.5392 36.9379 73.3743C36.6081 73.2094 36.3212 72.97 36.1 72.675L0.475 25.175C0.166672 24.7639 0 24.2639 0 23.75C0 23.2361 0.166672 22.7361 0.475 22.325L14.725 3.325ZM68.8085 21.3038L60.23 9.85625L56.544 21.318L68.8085 21.3038ZM51.5518 21.3228L56.1165 7.125H19.8835L24.4578 21.3512L51.5518 21.3228ZM25.9825 26.1012L38 63.4885L50.027 26.0775L25.9825 26.1012ZM19.4702 21.356L15.7653 9.8515L7.12975 21.3703L19.4702 21.356ZM7.12025 26.125L31.407 58.5058L20.995 26.1108L7.12025 26.125ZM44.593 58.5058L68.9272 26.0632L55.0192 26.0728L44.593 58.5058Z" fill="#1258BF"/>
</svg>
