<svg width="76" height="76" viewBox="0 0 76 76" fill="none" xmlns="http://www.w3.org/2000/svg">
<path d="M14.782 17.3137C14.6859 16.3246 14.7978 15.3264 15.1105 14.3831C15.4232 13.4398 15.9298 12.5724 16.5976 11.8365C17.2655 11.1007 18.0799 10.5126 18.9886 10.1102C19.8972 9.70785 20.88 9.49998 21.8738 9.5H33.25C33.8799 9.5 34.484 9.75022 34.9294 10.1956C35.3748 10.641 35.625 11.2451 35.625 11.875V13.6895C35.625 16.9955 33.2642 19.304 31.483 20.6672C31.2712 20.8226 31.0866 21.012 30.9368 21.2277L30.8797 21.3465L30.875 21.375V21.3892L30.8892 21.4368C30.9051 21.4843 30.9621 21.5682 31.0602 21.6885C31.4268 22.0726 31.8617 22.3851 32.3428 22.61C33.6775 23.275 35.6725 23.75 38 23.75C40.337 23.75 42.332 23.275 43.6525 22.61C44.1352 22.3857 44.5718 22.0731 44.9398 21.6885C45.0196 21.6012 45.0824 21.4997 45.125 21.3892V21.3465L45.068 21.2277C44.9182 21.012 44.7336 20.8226 44.5218 20.6672C42.7405 19.304 40.3798 16.9955 40.3798 13.6895V11.875C40.3797 11.2459 40.6293 10.6426 41.0737 10.1973C41.5181 9.75204 42.1209 9.50126 42.75 9.5H54.1263C55.12 9.49998 56.1028 9.70785 57.0114 10.1102C57.9201 10.5126 58.7345 11.1007 59.4024 11.8365C60.0702 12.5724 60.5768 13.4398 60.8895 14.3831C61.2022 15.3264 61.3141 16.3246 61.218 17.3137L60.0638 30.875H61.1895C62.1157 30.875 63.1845 30.1768 64.3958 28.595C65.3932 27.2935 66.9037 26.125 68.875 26.125C71.573 26.125 73.3733 28.2482 74.3565 30.2195C75.4157 32.3333 76 35.0882 76 38C76 40.9118 75.4157 43.6667 74.3565 45.7805C73.3733 47.7517 71.573 49.875 68.875 49.875C66.9037 49.875 65.3932 48.7065 64.3958 47.405C63.1845 45.8232 62.1157 45.125 61.1895 45.125H60.0638L61.218 58.6862C61.3141 59.6754 61.2022 60.6736 60.8895 61.6169C60.5768 62.5602 60.0702 63.4276 59.4024 64.1635C58.7345 64.8993 57.9201 65.4874 57.0114 65.8898C56.1028 66.2922 55.12 66.5 54.1263 66.5H42.75C42.1201 66.5 41.516 66.2498 41.0706 65.8044C40.6252 65.359 40.375 64.7549 40.375 64.125V62.3105C40.375 59.0045 42.7357 56.696 44.517 55.3328C44.7288 55.1774 44.9134 54.988 45.0633 54.7723L45.1202 54.6535L45.125 54.625V54.6107C45.083 54.4986 45.0201 54.3955 44.9398 54.3067C44.5728 53.9243 44.1379 53.6134 43.6572 53.39C42.3225 52.725 40.3275 52.25 38 52.25C35.6725 52.25 33.668 52.725 32.3475 53.39C31.8648 53.6143 31.4282 53.9269 31.0602 54.3115C30.9804 54.3988 30.9176 54.5003 30.875 54.6107V54.625L30.8797 54.6535L30.9368 54.7723C31.0128 54.9005 31.1742 55.0952 31.483 55.3328C33.2642 56.696 35.625 59.0045 35.625 62.3105V64.125C35.625 64.7549 35.3748 65.359 34.9294 65.8044C34.484 66.2498 33.8799 66.5 33.25 66.5H21.8738C20.88 66.5 19.8972 66.2922 18.9886 65.8898C18.0799 65.4874 17.2655 64.8993 16.5976 64.1635C15.9298 63.4276 15.4232 62.5602 15.1105 61.6169C14.7978 60.6736 14.6859 59.6754 14.782 58.6862L15.941 45.125H14.8105C13.8843 45.125 12.8155 45.8232 11.6042 47.405C10.6068 48.7065 9.09625 49.875 7.125 49.875C4.427 49.875 2.62675 47.7517 1.6435 45.7805C0.58425 43.6667 0 40.9118 0 38C0 35.0882 0.58425 32.3333 1.6435 30.2195C2.62675 28.2482 4.427 26.125 7.125 26.125C9.09625 26.125 10.6068 27.2935 11.6042 28.595C12.8155 30.1768 13.8843 30.875 14.8105 30.875H15.941L14.782 17.3137ZM21.8738 14.25C21.5416 14.2497 21.2131 14.319 20.9095 14.4535C20.6058 14.588 20.3337 14.7847 20.1108 15.0309C19.8879 15.2771 19.7191 15.5673 19.6153 15.8828C19.5115 16.1983 19.475 16.532 19.5082 16.8625L19.513 16.8957L20.8905 33.0457C20.9188 33.3736 20.8787 33.7037 20.7726 34.0152C20.6666 34.3267 20.497 34.6128 20.2746 34.8553C20.0522 35.0978 19.7819 35.2914 19.4807 35.4239C19.1795 35.5564 18.854 35.6249 18.525 35.625H14.8105C11.5045 35.625 9.196 33.2642 7.83275 31.483C7.67741 31.2712 7.48801 31.0866 7.27225 30.9368L7.1535 30.8797L7.125 30.875H7.11075C6.99865 30.917 6.8955 30.9799 6.80675 31.0602C6.4243 31.4272 6.11344 31.8621 5.89 32.3428C5.225 33.6775 4.75 35.6725 4.75 38C4.75 40.3275 5.225 42.332 5.89 43.6525C6.2225 44.3175 6.555 44.7213 6.8115 44.9398C6.89884 45.0196 7.00033 45.0824 7.11075 45.125H7.125L7.1535 45.1202L7.27225 45.0633C7.48801 44.9134 7.67741 44.7288 7.83275 44.517C9.196 42.7357 11.5045 40.375 14.8105 40.375H18.525C18.8536 40.3752 19.1786 40.4435 19.4795 40.5757C19.7803 40.7079 20.0504 40.9011 20.2728 41.1431C20.4951 41.3851 20.6648 41.6706 20.7711 41.9815C20.8775 42.2924 20.9181 42.622 20.8905 42.9495L19.513 59.1375C19.4798 59.4676 19.5162 59.8009 19.6197 60.1161C19.7232 60.4312 19.8916 60.7212 20.114 60.9673C20.3364 61.2135 20.6079 61.4103 20.911 61.5451C21.2141 61.6799 21.542 61.7497 21.8738 61.75H30.7942C30.5662 60.9615 29.868 60.078 28.595 59.1042C27.2935 58.1068 26.125 56.5962 26.125 54.625C26.125 51.927 28.2482 50.1267 30.2195 49.1435C32.3332 48.0842 35.0882 47.5 38 47.5C40.9118 47.5 43.6667 48.0842 45.7805 49.1435C47.7517 50.1267 49.875 51.927 49.875 54.625C49.875 56.5962 48.7065 58.1068 47.405 59.1042C46.132 60.078 45.4338 60.9567 45.2057 61.75H54.1263C54.4584 61.7503 54.7869 61.681 55.0905 61.5465C55.3942 61.412 55.6663 61.2153 55.8892 60.9691C56.1121 60.7229 56.2809 60.4327 56.3847 60.1172C56.4885 59.8017 56.525 59.468 56.4917 59.1375L56.487 59.1042L55.1095 42.9543C55.0812 42.6264 55.1213 42.2963 55.2274 41.9848C55.3334 41.6733 55.503 41.3872 55.7254 41.1447C55.9478 40.9022 56.2181 40.7086 56.5193 40.5761C56.8205 40.4436 57.146 40.3751 57.475 40.375H61.1895C64.4955 40.375 66.804 42.7357 68.1673 44.517C68.4047 44.8257 68.5995 44.9873 68.7278 45.0633L68.8465 45.1202L68.875 45.125H68.8893C69.0014 45.083 69.1045 45.0201 69.1933 44.9398C69.5757 44.5728 69.8866 44.1379 70.11 43.6572C70.775 42.3273 71.25 40.3323 71.25 38C71.25 35.6677 70.775 33.668 70.11 32.3475C69.8857 31.8648 69.5731 31.4282 69.1885 31.0602C69.1012 30.9804 68.9997 30.9176 68.8893 30.875H68.875L68.8465 30.8797L68.7278 30.9368C68.512 31.0866 68.3226 31.2712 68.1673 31.483C66.804 33.2642 64.4955 35.625 61.1895 35.625H57.475C57.146 35.6249 56.8205 35.5564 56.5193 35.4239C56.2181 35.2914 55.9478 35.0978 55.7254 34.8553C55.503 34.6128 55.3334 34.3267 55.2274 34.0152C55.1213 33.7037 55.0812 33.3736 55.1095 33.0457L56.487 16.8625C56.5202 16.5324 56.4838 16.1991 56.3803 15.8839C56.2768 15.5688 56.1084 15.2788 55.886 15.0327C55.6636 14.7865 55.3921 14.5897 55.089 14.4549C54.7859 14.3201 54.458 14.2503 54.1263 14.25H45.2057C45.4338 15.0385 46.132 15.922 47.405 16.8957C48.7065 17.8932 49.875 19.4038 49.875 21.375C49.875 24.073 47.7517 25.8732 45.7805 26.8565C43.6667 27.9157 40.9118 28.5 38 28.5C35.0882 28.5 32.3332 27.9157 30.2195 26.8565C28.2482 25.8732 26.125 24.073 26.125 21.375C26.125 19.4038 27.2935 17.8932 28.595 16.8957C29.868 15.922 30.5662 15.0433 30.7942 14.25H21.8738Z" fill="#1258BF"/>
</svg>
