<svg width="52" height="80" viewBox="0 0 52 80" fill="none" xmlns="http://www.w3.org/2000/svg">
<path d="M6.95096 73.0947V6.91562L45.0492 40.0051L6.95096 73.0947ZM11.5316 78.2899L49.6229 45.2004C50.3695 44.5528 50.9679 43.7542 51.3779 42.8581C51.7879 41.9621 52 40.9893 52 40.0051C52 39.021 51.7879 38.0482 51.3779 37.1522C50.9679 36.2561 50.3695 35.4575 49.6229 34.8099L11.5386 1.72037C7.02742 -2.18469 2.55591e-06 0.989035 2.55591e-06 6.91562V73.0947C-0.00114315 74.421 0.382913 75.7196 1.10618 76.8349C1.82945 77.9502 2.86127 78.8349 4.07808 79.3831C5.29489 79.9313 6.64511 80.1198 7.96704 79.9259C9.28897 79.732 10.5266 79.164 11.5316 78.2899Z" fill="#23A2E2"/>
</svg>
