<svg width="43" height="28" viewBox="0 0 43 28" fill="none" xmlns="http://www.w3.org/2000/svg">
<path d="M3.71161 3.74283H39.2829L21.4972 24.2572L3.71161 3.74283ZM0.919163 6.20935L18.7048 26.72C19.0529 27.122 19.4821 27.4443 19.9638 27.665C20.4454 27.8858 20.9683 28 21.4972 28C22.0262 28 22.5491 27.8858 23.0307 27.665C23.5123 27.4443 23.9416 27.122 24.2897 26.72L42.0753 6.20935C44.1743 3.78774 42.4684 1.37626e-06 39.2829 1.37626e-06H3.71161C2.99869 -0.000615543 2.3007 0.206184 1.70123 0.595637C1.10176 0.985089 0.626222 1.54069 0.331566 2.19589C0.0369093 2.85109 -0.0643768 3.57813 0.0398368 4.28994C0.14405 5.00175 0.449346 5.66815 0.919163 6.20935Z" fill="#23A2E2"/>
</svg>
