<svg width="24" height="24" viewBox="0 0 24 24" fill="none" xmlns="http://www.w3.org/2000/svg">
<g clip-path="url(#clip0_98_181)">
<path d="M5.48171 1.9922C5.39316 1.87829 5.28138 1.78453 5.15381 1.71714C5.02624 1.64974 4.88579 1.61027 4.74178 1.60133C4.59778 1.59239 4.45353 1.6142 4.3186 1.6653C4.18367 1.71639 4.06116 1.79561 3.95921 1.8977L2.40821 3.4502C1.68371 4.1762 1.41671 5.2037 1.73321 6.1052C3.0483 9.83586 5.18494 13.2233 7.98521 16.0172C10.7791 18.8175 14.1665 20.9541 17.8972 22.2692C18.7987 22.5857 19.8262 22.3187 20.5522 21.5942L22.1032 20.0432C22.2053 19.9412 22.2845 19.8187 22.3356 19.6838C22.3867 19.5489 22.4085 19.4046 22.3996 19.2606C22.3906 19.1166 22.3512 18.9762 22.2838 18.8486C22.2164 18.721 22.1226 18.6092 22.0087 18.5207L18.5482 15.8297C18.4264 15.7355 18.2849 15.6701 18.1342 15.6384C17.9835 15.6067 17.8276 15.6096 17.6782 15.6467L14.3932 16.4672C13.9547 16.576 13.4955 16.5699 13.0601 16.4492C12.6246 16.3286 12.2277 16.0977 11.9077 15.7787L8.22371 12.0932C7.90448 11.7733 7.67323 11.3765 7.55235 10.941C7.43147 10.5056 7.42505 10.0463 7.53371 9.6077L8.35571 6.3227C8.39285 6.17328 8.39567 6.01738 8.36398 5.86671C8.33229 5.71604 8.2669 5.5745 8.17271 5.4527L5.48171 1.9922ZM2.82671 0.766698C3.0892 0.504123 3.40455 0.300394 3.75182 0.16904C4.09908 0.0376865 4.47032 -0.0182865 4.84088 0.00483791C5.21144 0.0279623 5.57284 0.129655 5.90108 0.303163C6.22932 0.476672 6.5169 0.718026 6.74471 1.0112L9.43571 4.4702C9.92921 5.1047 10.1032 5.9312 9.90821 6.7112L9.08771 9.9962C9.04558 10.1664 9.04802 10.3445 9.09479 10.5134C9.14156 10.6824 9.23107 10.8364 9.35471 10.9607L13.0402 14.6462C13.1646 14.7701 13.3189 14.8597 13.4882 14.9065C13.6574 14.9533 13.8358 14.9556 14.0062 14.9132L17.2897 14.0927C17.6747 13.997 18.0763 13.9898 18.4645 14.0717C18.8526 14.1535 19.2171 14.3222 19.5307 14.5652L22.9897 17.2562C24.2332 18.2237 24.3472 20.0612 23.2342 21.1727L21.6832 22.7237C20.5732 23.8337 18.9142 24.3212 17.3677 23.7767C13.4087 22.3856 9.81452 20.1193 6.85271 17.1467C3.88026 14.1853 1.61403 10.5917 0.222706 6.6332C-0.320294 5.0882 0.167206 3.4277 1.27721 2.3177L2.82671 0.766698Z" fill="#1674CD"/>
<path fill-rule="evenodd" clip-rule="evenodd" d="M18.75 1.5C18.9489 1.5 19.1397 1.57902 19.2803 1.71967C19.421 1.86032 19.5 2.05109 19.5 2.25V4.5H21.75C21.9489 4.5 22.1397 4.57902 22.2803 4.71967C22.421 4.86032 22.5 5.05109 22.5 5.25C22.5 5.44891 22.421 5.63968 22.2803 5.78033C22.1397 5.92098 21.9489 6 21.75 6H19.5V8.25C19.5 8.44891 19.421 8.63968 19.2803 8.78033C19.1397 8.92098 18.9489 9 18.75 9C18.5511 9 18.3603 8.92098 18.2197 8.78033C18.079 8.63968 18 8.44891 18 8.25V6H15.75C15.5511 6 15.3603 5.92098 15.2197 5.78033C15.079 5.63968 15 5.44891 15 5.25C15 5.05109 15.079 4.86032 15.2197 4.71967C15.3603 4.57902 15.5511 4.5 15.75 4.5H18V2.25C18 2.05109 18.079 1.86032 18.2197 1.71967C18.3603 1.57902 18.5511 1.5 18.75 1.5Z" fill="#1674CD"/>
</g>
<defs>
<clipPath id="clip0_98_181">
<rect width="24" height="24" fill="white"/>
</clipPath>
</defs>
</svg>
