<svg width="644" height="428" viewBox="0 0 644 428" fill="none" xmlns="http://www.w3.org/2000/svg">
<g clip-path="url(#clip0_65_159)">
<path d="M484.377 16.5358C479.512 19.2646 471.659 8.47118 469.88 13.7507C468.1 19.0302 472.41 40.3329 474.634 45.4419C475.739 47.9814 477.301 50.304 478.386 52.8525C479.47 55.4009 480.052 58.331 479.093 60.9292C477.425 65.4507 471.92 67.2901 469.19 71.2642C466.01 75.8928 467.295 82.127 468.781 87.5393C470.062 92.2043 471.427 96.9116 473.893 101.076C476.359 105.24 480.077 108.865 484.723 110.243C490.638 111.997 496.96 109.913 502.662 107.559C508.144 105.296 513.568 102.731 518.231 99.0705C522.893 95.4098 526.784 90.5507 528.414 84.8575C530.458 77.7161 528.75 69.9008 525.21 63.3678C521.67 56.8348 516.434 51.3921 511.06 46.2537C502.011 37.5994 492.38 29.5504 482.255 22.1784L484.377 16.5358Z" fill="#5F56FF"/>
<path d="M556.735 382.968L552.142 425.757L551.933 427.713L499.965 427.511L499.69 425.548L494.188 386.339L556.735 382.968Z" fill="#FFB6B6"/>
<path d="M477.278 425.463C477.278 426.109 477.271 426.761 477.264 427.42L423.317 427.211L423.14 425.248L419.814 388.029L475.598 381.279C475.598 381.279 477.395 401.02 477.278 425.463Z" fill="#FFB6B6"/>
<path d="M471.273 92.3339C479.842 103.108 494.95 106.23 507.144 99.8169C524.548 90.6629 548.311 80.1716 552.511 88.5548C559.273 102.052 559.273 115.151 559.273 115.151L566.035 272.457C566.035 272.457 569.416 335.972 527.154 330.365C484.893 324.759 418.966 348.38 418.966 348.38L425.7 278.692L443.682 252.417L450.966 177.037L438.406 116.393L453.62 109.644C453.62 109.644 455.31 97.8342 460.382 97.8342C465.453 97.8342 466.678 86.489 471.137 92.1616C471.181 92.2183 471.227 92.2758 471.273 92.3339Z" fill="#6C63FF"/>
<path d="M562.956 427.759L551.932 427.713L499.965 427.511L493.202 427.485L492.81 425.522L482.355 372.846L480.721 425.476L480.662 427.433L477.264 427.42L423.317 427.211L419.448 427.191L419.435 425.235L419.207 388.035L418.998 353.587L418.965 348.376L418.971 348.37L435.124 315.69L439.836 306.155L440.803 304.198L450.238 285.109L535.616 273.312L536.923 273.129L560.12 269.927L560.29 279.416L560.388 284.803L560.734 304.198L560.773 306.155L560.813 308.392L562.917 425.796L562.956 427.759Z" fill="#2F2E41"/>
<path d="M496.531 87.33C516.028 87.33 531.834 71.5547 531.834 52.0948C531.834 32.635 516.028 16.8596 496.531 16.8596C477.033 16.8596 461.227 32.635 461.227 52.0948C461.227 71.5547 477.033 87.33 496.531 87.33Z" fill="#FFB6B6"/>
<path d="M535.377 107.412C526.691 119.158 522.249 133.671 522.954 148C513.106 143.478 506.459 133.922 504.197 123.773C501.935 113.623 503.661 102.966 507.296 93.1816C507.332 93.0838 507.369 92.986 507.406 92.8883C512.925 78.2018 507.797 61.7875 494.465 52.6579C485.473 46.4998 477.674 38.7741 471.688 29.9182C468.309 24.9188 465.437 18.6472 467.961 13.213C470.287 8.20566 476.297 5.86529 481.827 4.29932C494.454 0.723532 507.872 -1.31114 520.833 0.951515C533.794 3.21417 546.271 10.2802 552.396 21.3423C558.522 32.4045 556.917 47.5016 546.975 55.7023C550.111 56.6634 552.329 59.8144 552.063 62.9286C551.797 66.0427 549.071 68.8137 545.813 69.2833C547.939 69.2119 549.194 71.8661 548.436 73.7502C547.678 75.6343 545.723 76.8047 543.858 77.7745C541.201 79.1559 538.256 80.6003 538.245 84.2178C538.24 85.6683 538.786 87.076 539.677 88.2549C541.838 91.1117 545.325 92.3983 548.683 93.6062C541.582 95.5889 535.919 101.606 534.648 108.519L535.377 107.412Z" fill="#2F2E41"/>
<path d="M385.788 93.6471C384.824 83.559 389.259 74.8857 395.691 74.2748C402.124 73.6639 408.118 81.3461 409.08 91.4379C409.52 95.4639 408.988 99.5365 407.527 103.315L411.068 146.11L390.911 147.34L389.56 105.022C387.411 101.585 386.117 97.6848 385.788 93.6471Z" fill="#FFB6B6"/>
<path d="M495.606 113.949C495.606 113.949 462.675 94.6149 455.895 97.5149C449.115 100.415 416.184 149.716 416.184 149.716L413.157 140.719L390.033 142.949C390.033 142.949 376.473 205.783 406.498 199.983C436.524 194.183 485.92 140.049 485.92 140.049L495.606 113.949Z" fill="#6C63FF"/>
<path d="M190.081 217.83C190.081 217.83 208.675 206.95 213.682 217.038C218.689 227.126 264.949 347.474 264.949 347.474L235.139 353.267L190.081 217.83Z" fill="#6C63FF"/>
<path d="M149.527 145.936L150.404 147.182C147.136 149.064 146.654 153.814 148.187 157.261C149.719 160.708 152.685 163.262 155.25 166.031C157.815 168.8 160.154 172.229 159.916 175.995C159.649 180.229 156.19 183.716 155.708 187.933C155.012 194.074 160.74 199.461 160.456 205.636C160.241 210.351 156.608 214.139 153.004 217.198C150.183 219.596 147.113 222.006 145.209 225.099C144.687 225.951 144.251 226.86 143.932 227.833C142.51 232.224 143.851 237.009 145.656 241.255C147.455 245.501 149.748 249.649 150.311 254.225C150.868 258.801 149.138 264.084 144.919 265.961C153.323 265.243 161.524 262.317 168.483 257.561C169.11 257.133 169.719 256.693 170.323 256.241C180.189 248.826 187.119 238.115 193.788 227.677C194.339 226.82 194.885 225.957 195.436 225.099C196.916 222.776 198.402 220.459 199.888 218.136C204.125 211.498 208.414 204.761 210.724 197.242C212.848 190.308 213.208 182.981 214.079 175.78C214.502 172.252 215.059 168.736 215.164 165.185C215.332 159.723 214.398 154.237 212.494 149.111C210.631 144.071 207.834 139.373 204.229 135.376C200.538 131.281 196.023 127.95 191.054 125.552C186.243 123.229 181.008 121.786 175.674 121.387C173.886 121.254 172.105 121.23 170.323 121.312C163.294 121.601 156.347 123.374 149.591 125.552C144.623 127.95 140.107 131.281 136.416 135.376C132.812 139.373 130.014 144.071 128.151 149.111C134.629 145.658 142.325 144.471 149.527 145.936Z" fill="#2F2E41"/>
<path d="M199.898 209.308L166.573 196.264L165.729 209.308L136.515 213.873L122.792 275.829L135.208 314.307L227.996 316.916L224.728 303.872C224.728 303.872 239.757 286.916 230.609 259.525L229.593 252.554C226.937 234.327 215.971 218.357 199.898 209.308Z" fill="#6C63FF"/>
<path d="M181.35 195.678C197.698 195.678 210.95 182.451 210.95 166.135C210.95 149.819 197.698 136.593 181.35 136.593C165.002 136.593 151.75 149.819 151.75 166.135C151.75 182.451 165.002 195.678 181.35 195.678Z" fill="#A0616A"/>
<path d="M125.481 165.185C125.586 168.736 126.143 172.252 126.567 175.78C127.437 182.981 127.797 190.308 129.921 197.242C132.231 204.761 136.52 211.498 140.757 218.136C142.243 220.459 143.729 222.776 145.209 225.099C145.76 225.957 146.306 226.82 146.857 227.677C153.526 238.115 160.456 248.826 170.322 256.241C170.926 256.693 171.535 257.133 172.162 257.561C179.121 262.317 187.322 265.243 195.726 265.961C191.507 264.084 189.777 258.801 190.334 254.225C190.897 249.649 193.19 245.501 194.989 241.255C196.794 237.009 198.135 232.224 196.713 227.833C196.394 226.86 195.958 225.951 195.436 225.099C193.532 222.006 190.462 219.596 187.641 217.198C184.037 214.139 180.404 210.351 180.189 205.636C179.905 199.461 175.952 201.529 175.256 195.389C174.774 191.171 169.138 183.983 168.871 179.748C168.633 175.983 170.949 166.877 173.515 164.108C176.08 161.339 173.724 153.073 175.256 149.626C176.788 146.18 193.509 149.064 190.242 147.182L191.118 145.936C198.321 144.471 206.017 145.658 212.494 149.111C213.904 149.858 215.251 150.709 216.528 151.671C219.609 146.052 215.953 138.921 210.979 134.872C206.109 130.898 200.108 128.604 194.153 126.583C193.126 126.235 192.093 125.888 191.054 125.552C184.298 123.374 177.351 121.601 170.322 121.311C168.541 121.23 166.759 121.254 164.971 121.387C159.637 121.786 154.402 123.229 149.591 125.552C144.623 127.95 140.107 131.281 136.416 135.376C132.812 139.373 130.014 144.071 128.151 149.111C126.247 154.237 125.313 159.723 125.481 165.185Z" fill="#2F2E41"/>
<path d="M642.172 401.352L600.914 314.829C597.836 308.372 591.217 304.198 584.049 304.198H62.9209C60.9409 304.198 59.0134 304.505 57.1967 305.092C52.6032 306.559 48.6956 309.768 46.3825 314.177L2.15781 398.32C-0.900227 404.131 -0.697623 410.965 2.70021 416.587C6.0915 422.215 12.0444 425.593 18.6245 425.62L419.448 427.191L423.317 427.211L477.264 427.42L480.662 427.433L493.202 427.485L499.965 427.511L551.932 427.713L562.956 427.759L625.235 428H625.313C631.743 428 637.631 424.765 641.081 419.346C644.544 413.9 644.949 407.17 642.172 401.352Z" fill="white"/>
<path d="M642.172 401.352L600.914 314.829C597.836 308.372 591.217 304.198 584.049 304.198H62.9209C60.9409 304.198 59.0134 304.505 57.1967 305.092C52.6032 306.559 48.6956 309.768 46.3825 314.177L2.15781 398.32C-0.900227 404.131 -0.697623 410.965 2.70021 416.587C6.0915 422.215 12.0444 425.593 18.6245 425.62L419.448 427.191L423.317 427.211L477.264 427.42L480.662 427.433L493.202 427.485L499.965 427.511L551.932 427.713L562.956 427.759L625.235 428H625.313C631.743 428 637.631 424.765 641.081 419.346C644.544 413.9 644.949 407.17 642.172 401.352ZM639.428 418.296C636.337 423.154 631.07 426.043 625.313 426.043H625.241L562.917 425.796L552.142 425.757L499.69 425.548L492.81 425.522L480.721 425.476L477.277 425.463L423.14 425.248L419.435 425.235L18.6309 423.663C12.7436 423.637 7.41145 420.617 4.37958 415.583C1.34101 410.548 1.15819 404.431 3.89604 399.226L48.1205 315.09C49.7149 312.057 52.1456 309.657 55.0535 308.112C57.4254 306.846 60.1177 306.155 62.9209 306.155H584.049C590.466 306.155 596.386 309.892 599.143 315.67L640.401 402.187C642.891 407.404 642.525 413.424 639.428 418.296Z" fill="#3F3D56"/>
<path d="M185.196 366.807L283.864 330.937L234.53 311.134L136.188 336.807L185.196 366.807Z" fill="#F2F2F2"/>
<path d="M335.486 312.677L324.377 347.894L454.411 355.72L443.303 315.937L335.486 312.677Z" fill="#F2F2F2"/>
<path d="M182.207 318.701C191.35 319.606 198.293 325.047 197.715 330.854C197.137 336.661 189.258 340.634 180.112 339.727C176.454 339.415 172.924 338.233 169.817 336.28L131.128 331.958L133.547 313.881L171.431 320.061C174.863 318.755 178.558 318.289 182.207 318.701Z" fill="#A0616A"/>
<path d="M143.376 217.46L136.514 213.873C136.514 213.873 125.733 214.199 118.545 221.373C111.357 228.547 53.2014 310.72 53.2014 310.72C53.2014 310.72 38.8259 332.894 74.7648 336.155C110.704 339.416 150.563 339.416 150.563 339.416L153.831 312.677L99.5954 306.807L137.574 256.59L143.376 217.46Z" fill="#6C63FF"/>
<path d="M525.981 305.489C518.224 311.238 508.964 311.903 505.299 306.976C501.634 302.048 504.952 293.395 512.713 287.645C515.781 285.305 519.366 283.734 523.168 283.061L556.343 259.116L567.269 274.893L533.405 296.823C531.659 300.262 529.113 303.234 525.981 305.489Z" fill="#FFB6B6"/>
<path d="M546.881 110.488C546.881 110.488 573.642 111.332 578.713 129.891C583.785 148.449 593.927 188.007 592.237 242.931C592.237 242.931 600.689 278.362 578.713 276.675L548.285 290.172L528 263.177L544.904 242.931L546.881 110.488Z" fill="#6C63FF"/>
</g>
<defs>
<clipPath id="clip0_65_159">
<rect width="644" height="428" fill="white"/>
</clipPath>
</defs>
</svg>
