<svg width="584" height="615" viewBox="0 0 584 615" fill="none" xmlns="http://www.w3.org/2000/svg">
<g clip-path="url(#clip0_70_269)">
<path d="M303.294 487.864L284.265 486.818L286.886 545.206L299.78 545.915L303.294 487.864Z" fill="#A0616A"/>
<path d="M285.197 526.746L291.81 529.746V533.751C291.81 533.751 293.394 529.112 301.948 528.083L302.977 531.964C302.977 531.964 306.304 535.765 305.749 542.656L303.611 561.109L297.158 560.974L296.089 548.139C296.089 548.139 294.305 545.23 286.147 559.089C286.147 559.089 283.141 563.671 269.164 559.018C267.243 558.379 265.906 556.589 265.927 554.565C265.938 553.448 266.373 552.414 267.773 552.041C271.337 551.09 274.822 552.278 277.119 549.427C279.415 546.576 285.197 526.746 285.197 526.746Z" fill="#2F2E41"/>
<path d="M255.655 541.439L236.626 540.393L239.247 598.781L252.141 599.491L255.655 541.439Z" fill="#A0616A"/>
<path d="M237.558 580.322L244.172 583.321V587.326C244.172 587.326 245.755 582.688 254.309 581.658L255.339 585.539C255.339 585.539 258.665 589.34 258.111 596.231L255.972 614.684L249.52 614.549L248.45 601.714C248.45 601.714 246.666 598.805 238.509 612.665C238.509 612.665 235.502 617.246 221.526 612.593C219.605 611.954 218.268 610.164 218.288 608.14C218.3 607.023 218.734 605.989 220.134 605.616C223.698 604.665 227.183 605.854 229.48 603.002C231.777 600.151 237.558 580.322 237.558 580.322Z" fill="#2F2E41"/>
<path d="M494.453 366.964C493.609 365.54 489.956 367.064 489.285 365.772C488.616 364.485 492.009 362.523 493.948 358.042C494.298 357.234 496.501 352.142 494.87 350.571C491.778 347.592 477.63 359.883 472.679 355.861C471.593 354.979 470.834 353.216 467.545 350.355C466.237 349.217 465.446 348.703 464.68 348.895C463.594 349.166 463.508 350.62 462.343 353.479C460.596 357.766 459.562 357.507 458.545 360.927C457.789 363.467 457.962 364.943 457.072 365.231C455.814 365.638 454.656 362.944 453.061 363.185C451.434 363.432 450.45 366.568 450.14 368.915C449.557 373.322 451.175 376.229 452.072 379.286C453.046 382.608 453.625 387.661 451.374 394.814L429.097 457.58C434.015 444.7 448.255 409.394 454.239 396.274C455.966 392.487 457.874 388.645 461.79 387.129C465.56 385.669 470.738 386.541 477.34 384.951C478.111 384.765 480.251 384.221 480.52 382.962C480.743 381.922 479.484 381.341 479.677 380.367C479.937 379.06 482.412 379.044 485.453 377.536C487.597 376.472 488.933 375.208 490.082 374.12C490.428 373.793 495.577 368.859 494.453 366.964Z" fill="#F2F2F2"/>
<path d="M406.808 400.006C405.865 400.01 405.56 402.242 404.732 402.199C403.907 402.156 403.923 399.925 402.284 397.68C401.988 397.275 400.124 394.725 398.882 395.072C396.529 395.73 398.479 406.22 395.076 407.49C394.33 407.768 393.246 407.632 390.893 408.421C389.956 408.735 389.476 408.975 389.349 409.406C389.169 410.017 389.857 410.479 390.924 411.875C392.525 413.97 392.099 414.402 393.484 415.889C394.513 416.992 395.287 417.334 395.172 417.853C395.008 418.588 393.352 418.379 393.011 419.231C392.662 420.101 393.917 421.489 394.98 422.319C396.974 423.876 398.868 423.921 400.627 424.363C402.539 424.843 405.186 426.017 408.047 429.186L432.425 458.229C427.523 452.099 414.303 434.923 409.591 428.201C408.23 426.26 406.895 424.216 407.281 421.856C407.652 419.584 409.574 417.294 410.698 413.595C410.83 413.163 411.18 411.956 410.64 411.461C410.193 411.051 409.545 411.502 409.123 411.125C408.556 410.621 409.262 409.402 409.4 407.474C409.497 406.115 409.261 405.094 409.059 404.217C408.998 403.952 408.062 400.001 406.808 400.006Z" fill="#F2F2F2"/>
<path d="M425.608 404.226L425.04 399.158L425.299 398.774C426.5 396.997 427.112 395.262 427.119 393.615C427.12 393.353 427.108 393.092 427.096 392.825C427.047 391.768 426.986 390.453 427.671 388.922C428.055 388.067 429.134 386.09 430.757 386.335C431.194 386.396 431.524 386.597 431.775 386.832C431.811 386.773 431.849 386.714 431.89 386.651C432.395 385.88 432.795 385.549 433.181 385.231C433.477 384.986 433.783 384.734 434.262 384.137C434.473 383.875 434.637 383.645 434.775 383.452C435.195 382.867 435.743 382.17 436.71 382.182C437.742 382.231 438.283 383.085 438.642 383.65C439.282 384.658 439.572 385.385 439.764 385.867C439.833 386.044 439.913 386.242 439.953 386.303C440.286 386.792 442.992 386.335 444.011 386.168C446.3 385.787 448.281 385.456 449.097 386.9C449.682 387.933 449.248 389.298 447.767 391.068C447.306 391.618 446.815 392.037 446.38 392.365C446.741 392.58 447.064 392.91 447.195 393.429C447.503 394.658 446.447 395.889 444.057 397.093C443.464 397.394 442.665 397.795 441.545 397.988C441.018 398.079 440.543 398.101 440.137 398.113C440.128 398.348 440.073 398.603 439.93 398.865C439.51 399.635 438.637 400.003 437.32 399.914C435.871 399.839 434.678 399.562 433.626 399.32C432.707 399.109 431.915 398.931 431.294 398.972C430.141 399.065 429.253 399.988 428.21 401.185L425.608 404.226Z" fill="#F2F2F2"/>
<path d="M428.241 374.051L423.483 375.885L423.045 375.732C421.022 375.021 419.189 374.87 417.594 375.28C417.34 375.346 417.09 375.424 416.835 375.503C415.825 375.819 414.569 376.211 412.914 375.937C411.99 375.782 409.804 375.24 409.629 373.608C409.577 373.17 409.688 372.8 409.851 372.497C409.785 372.477 409.719 372.455 409.647 372.432C408.773 372.139 408.352 371.836 407.946 371.543C407.635 371.319 407.313 371.087 406.614 370.775C406.307 370.637 406.043 370.537 405.821 370.452C405.149 370.195 404.335 369.842 404.102 368.903C403.887 367.892 404.576 367.152 405.032 366.662C405.845 365.787 406.475 365.322 406.892 365.014C407.045 364.902 407.216 364.775 407.265 364.72C407.654 364.274 406.526 361.773 406.106 360.83C405.156 358.712 404.334 356.88 405.524 355.724C406.374 354.896 407.805 354.97 409.892 355.953C410.542 356.26 411.071 356.628 411.499 356.967C411.616 356.563 411.853 356.167 412.322 355.908C413.432 355.298 414.891 356.008 416.661 358.014C417.103 358.512 417.694 359.183 418.165 360.217C418.386 360.704 418.528 361.157 418.643 361.547C418.872 361.496 419.133 361.485 419.422 361.557C420.274 361.767 420.851 362.519 421.1 363.815C421.394 365.236 421.429 366.46 421.461 367.539C421.491 368.481 421.519 369.292 421.717 369.883C422.099 370.974 423.217 371.6 424.639 372.305L428.241 374.051Z" fill="#F2F2F2"/>
<path d="M425.608 359.119L425.04 354.051L425.299 353.667C426.5 351.89 427.112 350.155 427.119 348.508C427.12 348.246 427.108 347.985 427.096 347.718C427.047 346.661 426.986 345.347 427.671 343.815C428.055 342.961 429.134 340.983 430.757 341.228C431.194 341.289 431.524 341.49 431.775 341.725C431.811 341.666 431.849 341.607 431.89 341.544C432.395 340.773 432.795 340.442 433.181 340.124C433.477 339.879 433.783 339.627 434.262 339.03C434.473 338.768 434.637 338.538 434.775 338.345C435.195 337.76 435.743 337.063 436.71 337.075C437.742 337.124 438.283 337.978 438.642 338.543C439.282 339.552 439.572 340.278 439.764 340.76C439.833 340.937 439.913 341.135 439.953 341.196C440.286 341.686 442.992 341.228 444.011 341.061C446.3 340.68 448.281 340.349 449.097 341.793C449.682 342.826 449.248 344.191 447.767 345.961C447.306 346.511 446.815 346.93 446.38 347.258C446.741 347.473 447.064 347.804 447.195 348.322C447.503 349.551 446.447 350.782 444.057 351.986C443.464 352.287 442.665 352.688 441.545 352.882C441.018 352.972 440.543 352.994 440.137 353.006C440.128 353.241 440.073 353.496 439.93 353.758C439.51 354.529 438.637 354.896 437.32 354.807C435.871 354.732 434.678 354.455 433.626 354.213C432.707 354.002 431.915 353.824 431.294 353.865C430.141 353.958 429.253 354.881 428.21 356.078L425.608 359.119Z" fill="#F2F2F2"/>
<path d="M430.793 457.497L429.731 456.831L428.493 456.973C428.473 456.858 428.406 456.594 428.304 456.181C427.75 453.914 426.06 447.018 424.651 436.157C423.667 428.576 423.11 420.782 422.995 412.987C422.88 405.181 423.25 399.271 423.546 394.521C423.77 390.938 424.041 387.527 424.308 384.203C425.018 375.325 425.687 366.938 425.189 357.654C425.079 355.581 424.848 351.266 422.327 346.675C420.865 344.013 418.851 341.649 416.34 339.652L417.901 337.689C420.673 339.897 422.901 342.515 424.525 345.471C427.319 350.562 427.571 355.263 427.692 357.521C428.199 366.97 427.522 375.437 426.805 384.402C426.541 387.713 426.269 391.109 426.047 394.677C425.753 399.383 425.387 405.242 425.501 412.948C425.614 420.65 426.164 428.348 427.134 435.834C428.527 446.558 430.192 453.352 430.739 455.583C431.03 456.775 431.092 457.025 430.793 457.497Z" fill="#F2F2F2"/>
<path d="M411.744 343.634C411.641 343.634 411.537 343.631 411.432 343.624C409.298 343.509 407.322 342.231 405.558 339.828C404.73 338.698 404.307 337.408 403.463 334.836C403.332 334.439 402.696 332.428 402.309 329.66C402.056 327.851 402.087 327.095 402.446 326.427C402.844 325.683 403.487 325.164 404.212 324.815C404.18 324.575 404.205 324.328 404.309 324.075C404.736 323.031 405.872 323.168 406.486 323.234C406.797 323.273 407.185 323.324 407.603 323.302C408.262 323.27 408.615 323.075 409.151 322.781C409.664 322.499 410.301 322.149 411.247 321.956C413.112 321.567 414.675 322.096 415.19 322.269C417.9 323.172 419.236 325.279 420.783 327.719C421.091 328.209 422.15 329.99 422.848 332.433C423.352 334.195 423.281 334.978 423.13 335.56C422.821 336.757 422.093 337.442 420.244 338.954C418.314 340.538 417.344 341.331 416.512 341.813C414.575 342.931 413.359 343.634 411.744 343.634Z" fill="#F2F2F2"/>
<path d="M146.014 451.571L157.873 451.57L163.515 405.827L146.012 405.828L146.014 451.571Z" fill="#FFB6B6"/>
<path d="M186.645 451.302C187.014 451.924 187.209 453.931 187.209 454.654C187.209 456.877 185.407 458.679 183.184 458.679H146.458C144.941 458.679 143.712 457.45 143.712 455.933V454.404C143.712 454.404 141.895 449.809 145.635 444.145C145.635 444.145 150.284 448.58 157.231 441.633L159.28 437.922L174.108 448.767L182.327 449.779C184.125 450 185.72 449.744 186.645 451.302Z" fill="#2F2E41"/>
<path d="M101.014 451.571L112.873 451.57L118.515 405.827L101.012 405.828L101.014 451.571Z" fill="#FFB6B6"/>
<path d="M141.645 451.302C142.014 451.924 142.209 453.931 142.209 454.654C142.209 456.877 140.407 458.679 138.184 458.679H101.458C99.9411 458.679 98.7116 457.45 98.7116 455.933V454.404C98.7116 454.404 96.8948 449.809 100.635 444.145C100.635 444.145 105.284 448.58 112.231 441.633L114.28 437.922L129.108 448.767L137.327 449.779C139.125 450 140.72 449.744 141.645 451.302Z" fill="#2F2E41"/>
<path d="M92.2803 205.855L77.2803 239.855L96.2803 425.855L119.78 427.355L129.28 262.855L138.28 427.855L166.28 424.855L172.922 215.395L92.2803 205.855Z" fill="#2F2E41"/>
<path d="M151.378 70.3555L121.28 64.8555L115.201 70.9342L84.2799 83.8555L89.2799 180.855C89.2799 180.855 79.2799 187.517 84.2799 196.686C89.2799 205.855 88.2799 216.855 88.2799 216.855H172.922L169.28 161.855L179.28 91.8555L155.914 80.793L151.378 70.3555Z" fill="#CCCCCC"/>
<path d="M129.563 183.364C138.113 185.405 146.098 182.648 147.396 177.206C148.694 171.764 142.815 165.699 134.261 163.658C130.855 162.796 127.292 162.762 123.87 163.559L87.5303 155.368L84.0498 172.503L120.244 178.759C122.938 181.016 126.133 182.595 129.563 183.364Z" fill="#FFB6B6"/>
<path d="M90.2803 88.8555L84.2803 83.8555C84.2803 83.8555 72.2803 89.8555 70.2803 94.8555C68.2803 99.8555 56.2803 147.855 56.2803 147.855C56.2803 147.855 53.926 174.162 60.1032 177.509C66.2803 180.855 105.28 178.855 105.28 178.855L108.28 158.855L92.2803 152.855L90.2803 88.8555Z" fill="#CCCCCC"/>
<path d="M138.218 62.0176C152.817 62.0176 164.652 50.183 164.652 35.5844C164.652 20.9857 152.817 9.15112 138.218 9.15112C123.62 9.15112 111.785 20.9857 111.785 35.5844C111.785 50.183 123.62 62.0176 138.218 62.0176Z" fill="#FFB6B6"/>
<path d="M119.26 59.0496C116.093 59.3326 110.924 51.2318 111.154 43.3865C111.303 38.3394 106.921 37.3471 106.595 30.8382C106.406 27.0457 112.231 25.8631 112.632 22.8212C113.357 17.3096 116.912 13.6008 117.356 13.1499C121.189 9.258 123.893 10.5232 128.4 6.01256C131.113 3.29693 130.418 2.55294 132.245 1.34841C137.518 -2.12793 146.994 1.63976 152.661 6.71499C154.622 8.47122 161.931 6.55177 165.124 11.5112C168.885 17.3543 168.012 29.2706 166.399 30.8432C165.419 31.7986 163.181 29.4644 157.115 27.9663C151.499 26.5792 156.797 33.4385 150.304 32.2874C142.627 30.9263 141.124 28.5905 138.248 29.9914C135.209 31.4724 132.834 36.058 133.523 39.6627C133.865 41.4515 134.857 42.449 134.298 43.3586C133.277 45.0193 132.105 43.3906 130.796 45.0572C129.272 46.9957 133.058 51.9687 132.345 52.4489C132.201 52.5457 131.767 52.5331 127.681 48.6037C126.049 47.0347 125.571 46.0712 125.252 46.2191C124.735 46.4585 121.348 49.6136 122.642 52.1051C124.654 55.9824 122.079 56.1032 122.642 58.7134C123.223 61.4063 121.273 58.8698 119.26 59.0496Z" fill="#2F2E41"/>
<path d="M113.78 139.355L109.78 142.355L130.78 171.355L134.78 170.355L113.78 139.355Z" fill="#3F3D56"/>
<path d="M167.78 165.902V216.517C167.78 220.993 164.139 224.634 159.663 224.634H109.048C104.572 224.634 100.931 220.993 100.931 216.517V165.902C100.931 161.426 104.572 157.785 109.048 157.785H159.663C164.139 157.785 167.78 161.426 167.78 165.902Z" fill="white"/>
<path d="M141.093 178.457H124.753C124.341 178.457 124.006 178.121 124.006 177.709C124.006 177.297 124.341 176.962 124.753 176.962H141.093C141.505 176.962 141.84 177.297 141.84 177.709C141.84 178.121 141.505 178.457 141.093 178.457Z" fill="#3F3D56"/>
<path d="M141.093 194.387H124.753C124.341 194.387 124.006 194.052 124.006 193.64C124.006 193.228 124.341 192.893 124.753 192.893H141.093C141.505 192.893 141.84 193.228 141.84 193.64C141.84 194.052 141.505 194.387 141.093 194.387Z" fill="#3F3D56"/>
<path d="M132.975 216.352H116.635C116.223 216.352 115.888 216.017 115.888 215.605C115.888 215.193 116.223 214.858 116.635 214.858H132.975C133.387 214.858 133.722 215.193 133.722 215.605C133.722 216.017 133.387 216.352 132.975 216.352Z" fill="#3F3D56"/>
<path d="M149.861 186.427H115.984C115.572 186.427 115.237 186.092 115.237 185.68C115.237 185.268 115.572 184.933 115.984 184.933H149.861C150.273 184.933 150.608 185.268 150.608 185.68C150.608 186.092 150.273 186.427 149.861 186.427Z" fill="#3F3D56"/>
<path d="M147.359 187.479C139.565 191.547 135.347 198.865 137.936 203.825C140.526 208.784 148.942 209.506 156.738 205.435C159.874 203.852 162.586 201.541 164.646 198.695L197.45 181.043L188.838 165.825L157.413 184.843C153.899 184.906 150.452 185.81 147.359 187.479Z" fill="#FFB6B6"/>
<path d="M173.28 92.8555C173.28 92.8555 182.28 86.8555 188.28 102.855C193.013 115.478 201.792 152.685 205.288 167.83C206.216 171.851 204.873 176.051 201.789 178.792L197.78 182.355L178.28 196.855L164.984 177.509L181.132 167.773L162.717 127.824L173.28 92.8555Z" fill="#CCCCCC"/>
<path d="M583.04 458.358C583.04 458.822 582.664 459.198 582.2 459.198H0V457.518H582.2C582.664 457.518 583.04 457.894 583.04 458.358Z" fill="#E6E6E6"/>
<path d="M267.574 453.8C267.785 451.69 267.488 449.561 266.707 447.589L270.001 425.675L259.528 424.413L257.315 446.778C256.208 448.586 255.551 450.633 255.397 452.747C254.941 458.033 257.297 462.552 260.66 462.842C264.023 463.133 267.119 459.084 267.574 453.8Z" fill="#A0616A"/>
<path d="M297.887 324.332L289.243 369.745L278.523 393.568L272.138 439.505L255.732 444.469L260.877 386.221C260.877 386.221 277.446 332.099 281.889 326.588C286.331 321.077 297.887 324.332 297.887 324.332Z" fill="#6C63FF"/>
<path d="M306.211 280.971L295.803 314.926L331.609 325.902L342.018 291.947L306.211 280.971Z" fill="#2F2E41"/>
<path d="M324.543 304.676C334.627 304.676 342.803 296.501 342.803 286.416C342.803 276.331 334.627 268.156 324.543 268.156C314.458 268.156 306.282 276.331 306.282 286.416C306.282 296.501 314.458 304.676 324.543 304.676Z" fill="#A0616A"/>
<path d="M341.463 260.711C335.841 257.988 325.207 259.265 321.405 259.684C318.009 260.059 315.654 262.028 313.339 263.965C308.084 268.361 305.779 273.717 305.043 275.605C301.568 284.526 304.99 288.277 301.358 292.034C297.465 296.059 292.008 293.334 289.637 297.221C287.483 300.753 291.477 303.838 289.935 309.469C288.155 315.967 281.32 317.395 282.018 319.874C282.791 322.625 292.028 323.782 299.393 320.473C300.387 320.026 309.118 315.973 309.541 309.401C309.812 305.186 306.355 304.751 305.4 298.676C304.735 294.453 305.809 290.866 307.522 285.144C308.715 281.157 309.312 279.163 310.599 277.308C311.22 276.413 317.067 268.272 325.736 269.791C333.377 271.131 338.514 279.153 337.524 284.211C336.939 287.198 334.16 289.448 335.253 291.619C336.059 293.22 338.13 293.108 338.389 294.607C338.633 296.013 337.04 297.455 335.83 298.55C334.301 299.933 332.93 300.592 332.414 300.879C328.737 302.929 327.374 309.044 327.395 312.848C327.425 318.527 330.574 325.512 336.953 327.934C344.117 330.655 352.854 326.668 353.184 323.455C353.376 321.589 350.627 321.005 350.187 317.809C349.69 314.204 352.843 312.446 351.841 310.211C350.933 308.186 352.256 311.076 349.75 308.22C349.444 307.871 347.827 305.966 347.798 303.569C347.761 300.447 350.441 298.387 351.922 296.729C357.461 290.522 358.334 278.81 353.202 273.089C350.289 269.841 352.092 265.858 341.463 260.711Z" fill="#2F2E41"/>
<path d="M344.14 278.415C345.791 274.672 341.425 269.91 340.855 269.304C336.595 264.769 330.477 264.604 327.463 264.523C324.824 264.452 319.166 264.3 314.886 268.097C312.571 270.15 310.411 273.579 311.38 275.127C311.973 276.073 313.691 276.12 317.126 276.212C320.215 276.296 321.332 275.889 323.06 276.681C324.337 277.266 324.652 277.912 325.769 278.862C328.791 281.432 332.506 281.824 333.605 281.939C336.201 282.213 342.516 282.099 344.14 278.415Z" fill="#2F2E41"/>
<path d="M300.559 320.313L285.074 325.077L286.266 339.371L281.501 427.516L361.308 429.898L362.326 421.695L354.161 392.152L357.734 333.415L335.102 321.504L329.147 309.592L307.706 308.401L300.559 320.313Z" fill="#6C63FF"/>
<path d="M335.698 412.626L280.905 429.302C280.905 429.302 247.812 438.772 229.945 448.301C212.078 457.83 214.201 466.477 214.201 466.477L236.833 567.724L258.274 568.916L255.366 475.781L278.523 472.624L282.097 506.727L301.155 511.491L320.213 445.978C321.582 454.191 329.185 459.861 337.445 458.814C344.344 457.941 352.764 456.602 360.712 454.616C378.579 450.152 360.712 418.582 360.712 418.582L335.698 412.626Z" fill="#2F2E41"/>
<path d="M279.118 463.25C279.118 463.25 282.692 434.662 288.647 402.501C294.603 370.34 316.044 378.678 316.044 378.678L354.16 419.177L323.19 439.427L279.118 463.25Z" fill="#2F2E41"/>
<path d="M311.446 432.363C313.01 430.932 314.209 429.147 314.942 427.157L332.009 413.022L325.045 405.098L308.483 420.289C306.453 420.899 304.598 421.986 303.074 423.459C299.209 427.094 297.952 432.033 300.264 434.491C302.576 436.95 307.583 435.998 311.446 432.363Z" fill="#A0616A"/>
<path d="M325.619 353.655L339.251 380.21L315.848 410.39L327.628 422.722L356.911 398.032L370.647 385.095C375.629 380.403 373.037 374.217 370.568 367.835C360.711 342.349 363.094 332.819 353.564 330.437C345.813 328.499 325.619 353.655 325.619 353.655Z" fill="#6C63FF"/>
<path d="M263.175 403.637L265.403 397.398L306.851 404.529L342.06 386.702L343.843 391.604L305.514 414.334L263.175 403.637Z" fill="#E6E6E6"/>
<path d="M345.625 388.484L305.96 408.54L260.623 401.989L264.957 421.019L303.286 427.704L339.521 410.341L345.625 388.484Z" fill="#3F3D56"/>
<path d="M104.611 172.303L106.84 166.064L148.288 173.195L183.497 155.367L185.279 160.27L146.951 183L104.611 172.303Z" fill="#E6E6E6"/>
<path d="M187.062 157.15L147.396 177.206L102.06 170.654L106.394 189.685L144.722 196.37L180.958 179.007L187.062 157.15Z" fill="#3F3D56"/>
</g>
<defs>
<clipPath id="clip0_70_269">
<rect width="583.04" height="614.684" fill="white"/>
</clipPath>
</defs>
</svg>
