<svg width="663" height="456" viewBox="0 0 663 456" fill="none" xmlns="http://www.w3.org/2000/svg">
<g clip-path="url(#clip0_69_168)">
<path d="M592.527 144.61C592.526 138.768 590.904 133.039 587.842 128.062C584.78 123.084 580.398 119.052 575.182 116.414C569.966 113.775 564.12 112.632 558.294 113.113C552.467 113.594 546.888 115.679 542.176 119.137C537.464 122.595 533.802 127.291 531.599 132.703C529.396 138.115 528.736 144.031 529.694 149.795C530.652 155.559 533.189 160.945 537.024 165.355C540.86 169.765 545.843 173.026 551.421 174.776L557.535 215.162L588.706 189.201C588.706 189.201 581.973 180.629 578.361 170.963C582.718 168.083 586.292 164.168 588.764 159.569C591.236 154.97 592.529 149.83 592.526 144.609L592.527 144.61Z" fill="#ED9DA0"/>
<path d="M446.522 0H5.97529C2.67523 0 0 2.67362 0 5.9717V220.141C0 223.439 2.67523 226.113 5.97529 226.113H446.522C449.822 226.113 452.497 223.439 452.497 220.141V5.9717C452.497 2.67362 449.822 0 446.522 0Z" fill="#3F3D56"/>
<path d="M441.101 4.2854H12.0612C8.76116 4.2854 6.08594 6.95902 6.08594 10.2571V214.642C6.08594 217.94 8.76116 220.613 12.0612 220.613H441.101C444.401 220.613 447.076 217.94 447.076 214.642V10.2571C447.076 6.95902 444.401 4.2854 441.101 4.2854Z" fill="white"/>
<path d="M120.411 64.0222C136.772 67.0395 153.461 64.0222 169.753 61.9772L219.269 55.7811C221.271 55.5268 224.185 54.3316 225.363 56.775C226.026 58.1441 225.58 61.1117 225.629 62.6854C225.76 67.0221 225.747 71.3597 225.629 75.6964C225.406 83.9864 224.801 92.2614 224.024 100.511C222.517 116.662 220.385 132.73 219.318 148.943C218.773 157.196 218.501 165.473 218.738 173.726C218.794 175.696 218.875 177.667 218.993 179.63C219.123 181.83 220.108 185.097 217.709 186.564C216.339 187.406 213.642 187.363 212.074 187.611C209.594 188.001 207.114 188.311 204.585 188.565C187.915 190.231 171.027 189.537 154.295 189.439L103.769 189.179L91.4449 189.111C90.3294 189.111 86.3066 189.78 85.6171 188.454C85.3254 187.89 86.1002 185.251 86.237 184.544C86.4271 183.379 86.6337 182.217 86.8569 181.056C88.2956 172.908 89.9937 164.811 91.7051 156.718C95.3814 139.371 99.1448 121.932 100.656 104.216C101.406 95.3243 100.91 86.3535 101.827 77.4813C102.255 73.3607 102.764 64.1663 108.25 63.801C112.9 63.4913 117.686 63.801 122.348 63.801C122.595 63.801 122.831 63.7031 123.006 63.5289C123.18 63.3546 123.278 63.1182 123.278 62.8717C123.278 62.6253 123.18 62.3889 123.006 62.2146C122.831 62.0403 122.595 61.9424 122.348 61.9424C117.947 61.9424 113.538 61.8248 109.137 61.9118C106.211 61.9673 104.178 62.6614 102.782 65.3507C99.2185 72.2525 99.5832 81.4594 99.4713 88.994C99.2044 107.03 96.4339 124.682 92.8256 142.321C91.0089 151.2 89.0498 160.046 87.2464 168.932C86.3969 173.176 85.5889 177.432 84.843 181.701C84.4958 183.734 82.7413 188.213 84.2853 190.078C85.8292 191.943 90.578 190.939 92.7045 190.952L107.497 191.035L135.84 191.196C154.156 191.301 172.529 191.816 190.836 191.279C199.578 191.019 208.815 190.659 217.326 188.571C219.862 187.952 221.083 186.787 221.182 184.086C221.331 179.897 220.649 175.579 220.562 171.372C219.943 135.374 228.405 99.8789 227.537 63.8689C227.482 61.4215 228.405 55.251 225.727 53.7701C224.525 53.1008 222.962 53.4661 221.698 53.6152C219.28 53.8943 216.869 54.2347 214.45 54.5196L183.05 58.4356C173.013 59.678 162.983 61.0131 152.926 62.1528C142.282 63.3952 131.532 64.129 120.924 62.1528C119.752 61.9358 119.25 63.7265 120.427 63.9435L120.411 64.0222Z" fill="#6C63FF"/>
<path d="M429.415 166.763V158.894C429.415 158.894 376.292 155.468 370.55 157.321C370.55 157.321 368.195 161.307 380.137 161.945C380.139 161.945 417.306 167.536 429.415 166.763Z" fill="#6C63FF"/>
<path d="M100.675 85.9203L224.554 79.8484C225.75 79.7863 225.756 77.9277 224.554 77.9898L100.675 84.0651C99.4852 84.1214 99.4786 85.98 100.675 85.9203Z" fill="#6C63FF"/>
<path d="M138.84 70.6011C138.493 70.968 138.242 71.4139 138.107 71.9001C137.972 72.3863 137.958 72.8981 138.066 73.3909C138.174 73.8838 138.401 74.3427 138.727 74.7279C139.053 75.1131 139.469 75.4129 139.937 75.6012C141.604 76.3632 143.564 75.7255 145.219 75.3097C147.698 74.6901 150.178 74.1385 152.726 73.6863C158.272 72.7051 163.889 72.1829 169.521 72.125C172.09 72.0944 174.635 72.2079 177.202 72.323C179.061 72.3975 181.064 72.5458 182.638 71.3937C184.436 70.0801 185.019 67.515 183.258 65.9165C180.779 63.6553 175.435 64.9681 172.567 65.2042C162.174 66.0668 151.848 67.6065 141.655 69.8134C140.49 70.0619 140.98 71.8583 142.152 71.6041C148.877 70.1541 155.653 68.9893 162.481 68.1097C165.836 67.6967 169.199 67.3477 172.567 67.0628C174.154 66.9327 175.741 66.8143 177.328 66.7224C177.948 66.6851 178.606 66.6172 179.235 66.6395C181.2 66.6826 181.429 66.3298 180.251 68.7027C179.204 70.8032 179.539 70.5613 177.722 70.4934C176.953 70.4934 176.185 70.4106 175.416 70.3691C173.841 70.3029 172.266 70.2678 170.692 70.264C167.34 70.264 163.997 70.4249 160.664 70.7468C157.837 71.0193 155.016 71.4036 152.221 71.8989C150.473 72.2087 148.74 72.5682 147.007 72.9649C146.245 73.1446 145.475 73.3302 144.713 73.5223C144.348 73.6217 143.975 73.7078 143.609 73.8014C142.253 74.2724 141.098 73.6529 140.143 71.9428C140.972 71.0814 139.666 69.762 138.829 70.6292L138.84 70.6011Z" fill="#6C63FF"/>
<path d="M161.294 97.0463C152.324 96.6993 142.634 99.1219 136.726 106.34C132.101 111.985 129.466 121.669 134.364 128.025C139.627 134.841 151.171 133.639 158.132 130.733C165.497 127.635 173.557 121.247 175.77 113.257C178.529 103.276 169.57 95.7294 160.24 95.6151C159.993 95.6151 159.757 95.713 159.582 95.8873C159.408 96.0616 159.31 96.2979 159.31 96.5444C159.31 96.7909 159.408 97.0272 159.582 97.2015C159.757 97.3758 159.993 97.4737 160.24 97.4737C165.559 97.5358 170.779 99.816 173.259 104.762C175.856 109.98 173.618 115.456 170.159 119.632C164.616 126.28 155.95 131.292 147.12 131.15C141.816 131.067 135.961 129.254 134.318 123.666C132.966 119.137 133.996 114.186 136.352 110.171C141.448 101.497 151.82 98.5595 161.33 98.9314C162.526 98.9745 162.526 97.1159 161.33 97.0728L161.294 97.0463Z" fill="#6C63FF"/>
<path d="M150.892 114.208C151.654 116.686 148.505 117.504 147.011 118.359C145.962 118.947 145.048 119.746 144.326 120.707C142.764 122.801 142.181 125.465 141.667 127.975C141.431 129.146 143.223 129.641 143.464 128.472C143.748 126.628 144.276 124.83 145.033 123.125C146.149 120.907 147.748 120.163 149.832 119.023C151.915 117.884 153.421 116.118 152.683 113.713C152.336 112.574 150.539 113.063 150.892 114.21V114.208Z" fill="#6C63FF"/>
<path d="M155.253 108.556L150.176 115.253L151.781 116.189L155.5 110.811L153.801 110.092L151.948 117.161C151.898 117.376 151.925 117.601 152.026 117.797C152.126 117.994 152.292 118.148 152.495 118.234C152.698 118.32 152.924 118.332 153.135 118.267C153.346 118.202 153.527 118.065 153.646 117.88C154.49 116.483 155.437 115.152 156.48 113.896L154.93 112.992C154.514 114.592 153.712 116.067 152.593 117.286L154.15 118.19C154.245 117.334 154.473 116.498 154.825 115.712C155.302 114.64 153.79 113.692 153.22 114.77C152.695 115.753 152.096 116.695 151.428 117.586L153.127 117.809L153.505 116.043L151.806 115.82L152.078 117.369C152.123 117.525 152.208 117.667 152.324 117.78C152.44 117.894 152.583 117.975 152.74 118.017C152.897 118.058 153.062 118.058 153.219 118.016C153.376 117.974 153.519 117.892 153.635 117.778C155.207 116.152 156.468 114.252 157.354 112.171H155.755C156.175 112.946 156.47 113.782 156.629 114.649C156.852 115.765 158.334 115.349 158.452 114.401C158.719 112.325 158.856 110.236 158.862 108.143H157.002V112.04C157.002 113.05 158.66 113.347 158.831 112.289C158.954 111.349 159.264 110.443 159.743 109.624H158.113C158.506 110.258 158.72 110.985 158.733 111.73C158.733 111.977 158.83 112.213 159.005 112.388C159.179 112.562 159.416 112.66 159.662 112.66C159.909 112.66 160.145 112.562 160.32 112.388C160.494 112.213 160.592 111.977 160.592 111.73L160.828 110.488H159.036C159.216 111.585 159.898 117.762 157.474 117.037C157.064 116.938 156.947 116.962 157.121 117.105L157.673 115.928L158.968 113.183L157.232 112.712C157.344 113.988 157.461 115.81 156.692 116.9C156.245 117.354 155.674 117.664 155.05 117.792C154.427 117.92 153.779 117.86 153.19 117.619C152.547 117.161 151.998 116.585 151.572 115.921L150.301 117.164C151.33 117.913 152.998 119.754 154.324 119.859C155.335 119.942 156.184 119.103 156.848 118.434C157.866 117.383 158.659 116.136 159.18 114.77C159.701 113.403 159.939 111.945 159.879 110.483C159.879 110.237 159.782 110 159.607 109.826C159.433 109.652 159.196 109.554 158.95 109.554C158.703 109.554 158.467 109.652 158.292 109.826C158.118 110 158.02 110.237 158.02 110.483V112.602C158.02 112.848 158.118 113.085 158.292 113.259C158.467 113.433 158.703 113.531 158.95 113.531C159.196 113.531 159.433 113.433 159.607 113.259C159.782 113.085 159.879 112.848 159.879 112.602V107.404C159.879 107.157 159.782 106.921 159.607 106.747C159.433 106.572 159.196 106.474 158.95 106.474C158.703 106.474 158.467 106.572 158.292 106.747C158.118 106.921 158.02 107.157 158.02 107.404C158.016 108.65 157.908 109.893 157.697 111.121L159.526 111.369C159.381 109.889 159.312 108.402 159.322 106.915C159.32 106.692 159.237 106.477 159.089 106.31C158.942 106.142 158.739 106.033 158.518 106.003C158.296 105.973 158.072 106.024 157.885 106.145C157.697 106.267 157.56 106.452 157.498 106.666C157.219 107.85 156.879 109.015 156.55 110.173L158.249 109.951L158.118 109.454C158.036 108.27 156.172 108.264 156.259 109.454C156.279 109.955 156.41 110.446 156.643 110.891C156.738 111.045 156.876 111.168 157.039 111.246C157.203 111.323 157.385 111.352 157.565 111.329C157.744 111.305 157.913 111.23 158.051 111.113C158.189 110.996 158.29 110.842 158.342 110.669C158.695 109.504 159.012 108.339 159.291 107.162L157.462 106.913C157.453 108.401 157.521 109.888 157.667 111.368C157.76 112.323 159.297 112.732 159.49 111.617C159.738 110.218 159.868 108.8 159.88 107.379H158.021V112.577H159.88V110.458H158.021C158.13 112.796 157.318 115.082 155.758 116.828C155.516 117.102 155.255 117.359 154.977 117.596C154.537 118.018 154.134 117.956 153.78 117.404C152.865 116.873 152.007 116.251 151.219 115.545C150.45 114.994 149.396 116.085 149.942 116.816C151.368 118.712 153.494 120.825 156.142 119.914C158.926 118.929 159.304 115.161 159.093 112.683C159.025 111.859 157.791 111.301 157.363 112.218C156.744 113.525 156.12 114.826 155.504 116.14C155.183 116.63 154.991 117.192 154.946 117.776C155.151 119.17 156.843 118.94 157.885 118.86C161.921 118.556 161.283 112.838 160.817 109.963C160.662 109.009 159.273 109.157 159.025 109.963C158.828 110.529 158.725 111.123 158.721 111.722H160.582C160.515 110.657 160.216 109.619 159.708 108.68C159.625 108.542 159.507 108.427 159.366 108.348C159.226 108.268 159.067 108.226 158.905 108.226C158.744 108.226 158.585 108.268 158.444 108.348C158.304 108.427 158.186 108.542 158.103 108.68C157.548 109.636 157.174 110.686 156.999 111.778L158.858 112.026V108.129C158.858 107.883 158.761 107.646 158.586 107.472C158.412 107.298 158.175 107.2 157.929 107.2C157.682 107.2 157.445 107.298 157.271 107.472C157.097 107.646 156.999 107.883 156.999 108.129C156.992 110.221 156.856 112.311 156.589 114.387L158.418 114.138C158.208 113.126 157.851 112.149 157.358 111.239C157.275 111.101 157.158 110.986 157.017 110.907C156.876 110.827 156.717 110.786 156.556 110.786C156.394 110.786 156.235 110.827 156.095 110.907C155.954 110.986 155.836 111.101 155.753 111.239C154.945 113.18 153.782 114.953 152.325 116.469L153.881 116.878L153.608 115.329C153.466 114.505 152.301 114.48 151.909 115.106C151.601 115.572 151.392 116.096 151.295 116.646C151.198 117.196 151.215 117.76 151.345 118.303C151.5 119.183 152.616 119.09 153.044 118.526C153.712 117.638 154.311 116.699 154.836 115.719L153.23 114.778C152.802 115.703 152.51 116.686 152.363 117.696C152.251 118.513 153.225 119.369 153.919 118.6C155.253 117.143 156.219 115.388 156.737 113.482C156.966 112.64 155.8 111.841 155.18 112.578C154.04 113.944 153.004 115.393 152.081 116.914L153.78 117.633L155.671 110.589C155.721 110.375 155.693 110.149 155.593 109.953C155.493 109.757 155.327 109.602 155.124 109.516C154.921 109.43 154.694 109.419 154.483 109.484C154.273 109.548 154.092 109.685 153.972 109.87L150.253 115.254C149.558 116.248 151.152 117.112 151.858 116.19L156.913 109.498C157.633 108.544 156.021 107.64 155.308 108.557L155.253 108.556Z" fill="#6C63FF"/>
<path d="M229.483 139.498C236.922 134.95 242.836 128.165 249.408 122.49C256.535 116.338 264.02 110.606 271.726 105.18C286.691 94.6469 302.407 85.223 318.11 75.824C318.314 75.6953 318.459 75.4928 318.516 75.259C318.573 75.0252 318.537 74.7785 318.416 74.5706C318.295 74.3628 318.097 74.2101 317.866 74.1447C317.634 74.0792 317.386 74.1061 317.174 74.2197C301.47 83.6187 285.748 93.021 270.783 103.575C263.722 108.532 256.827 113.786 250.219 119.362C243.028 125.434 236.627 132.992 228.521 137.893C227.498 138.513 228.438 140.124 229.457 139.498H229.483Z" fill="#6C63FF"/>
<path d="M342.122 46.9644C334.062 47.7819 325.381 49.8326 320.423 56.8777C316.14 62.9372 316.232 73.5074 320.258 79.7275C324.827 86.7967 334.163 87.0509 341.417 84.765C348.67 82.479 356.177 78.4702 356.109 69.8084C356.072 65.1619 354.392 60.3224 352.538 56.1099C350.939 52.4731 348.105 49.2942 343.816 49.6976C342.631 49.8094 342.619 51.668 343.816 51.5562C349.562 51.0236 351.41 57.8451 352.774 62.1512C354.017 66.1723 355.161 70.9307 353.214 74.927C351.267 78.9233 346.574 80.9616 342.563 82.4235C338.223 83.9972 333.456 84.9579 328.924 83.6659C319.947 81.1563 317.467 69.7877 320.056 61.7172C323.032 52.4234 333.571 49.691 342.157 48.8238C343.335 48.7062 343.348 46.8476 342.157 46.9652L342.122 46.9644Z" fill="#6C63FF"/>
<path d="M354.52 118.836C346.461 119.653 337.779 121.704 332.822 128.749C328.538 134.809 328.631 145.379 332.656 151.599C337.225 158.668 346.562 158.923 353.815 156.637C361.068 154.351 368.576 150.342 368.508 141.68C368.471 137.033 366.791 132.194 364.937 127.982C363.337 124.345 360.504 121.166 356.214 121.569C355.03 121.681 355.017 123.54 356.214 123.428C361.961 122.895 363.809 129.717 365.172 134.023C366.415 138.044 367.559 142.802 365.612 146.799C363.665 150.795 358.972 152.833 354.961 154.295C350.622 155.869 345.854 156.83 341.322 155.537C332.345 153.028 329.866 141.659 332.455 133.589C335.431 124.295 345.969 121.563 354.556 120.695C355.734 120.578 355.746 118.719 354.556 118.837L354.52 118.836Z" fill="#6C63FF"/>
<path d="M329.965 65.0626L335.836 71.754C335.952 71.866 336.095 71.946 336.251 71.9864C336.407 72.0268 336.572 72.0261 336.728 71.9844C336.883 71.9428 337.026 71.8615 337.141 71.7486C337.256 71.6356 337.341 71.4949 337.385 71.3399C338.628 68.0807 338.39 64.7039 338.681 61.2783C339.001 57.7357 339.891 54.2678 341.315 51.0079C344.177 44.3992 349.027 38.8455 355.193 35.1188C356.215 34.4992 355.276 32.8883 354.256 33.5144C348.177 37.1733 343.301 42.528 340.227 48.9199C338.722 52.0299 337.678 55.3423 337.128 58.7529C336.508 62.7741 337.072 66.9874 335.584 70.8454L337.14 70.4313L331.3 63.7523C330.506 62.8536 329.198 64.1738 329.985 65.0659L329.965 65.0626Z" fill="#6C63FF"/>
<path d="M232.476 146.742C264.453 145.768 296.438 145.561 328.432 146.123C328.678 146.123 328.915 146.025 329.089 145.851C329.263 145.676 329.361 145.44 329.361 145.193C329.361 144.947 329.263 144.711 329.089 144.536C328.915 144.362 328.678 144.264 328.432 144.264C296.446 143.694 264.461 143.901 232.476 144.884C231.28 144.92 231.273 146.78 232.476 146.742Z" fill="#6C63FF"/>
<path d="M335.115 128.415C346.046 132.703 358.75 150.517 368.717 156.723C369.734 157.342 370.669 155.75 369.653 155.118C359.556 148.835 346.713 130.959 335.636 126.627C334.527 126.187 334.043 127.983 335.147 128.417L335.115 128.415Z" fill="#6C63FF"/>
<path d="M354.966 119.998C343.88 132.913 338.453 142.14 337.728 159.14C337.678 160.336 339.538 160.336 339.587 159.14C340.292 142.628 345.527 133.866 356.282 121.312C357.055 120.403 355.747 119.087 354.966 119.998Z" fill="#6C63FF"/>
<path d="M107.018 139.995L176.309 139.09L184.275 138.985C185.707 138.985 187.14 138.935 188.572 138.929C189.04 138.939 189.502 139.044 189.928 139.239C190.354 139.434 190.735 139.715 191.048 140.064C191.361 140.412 191.598 140.821 191.746 141.266C191.894 141.71 191.949 142.18 191.907 142.647C191.815 146.983 189.09 146.828 185.516 146.983L176.905 147.373L141.84 148.916C135.56 149.196 129.274 149.536 122.993 149.753C117.327 149.926 106.553 148.08 109.07 139.84C109.418 138.693 107.626 138.204 107.273 139.343C106.03 143.394 108.228 147.508 111.761 149.634C116.777 152.645 123.385 151.622 128.922 151.373L171.971 149.422L182.423 148.957C185.102 148.833 188.827 149.379 191.291 148.133C194.18 146.677 194.689 140.896 192.865 138.461C191.929 137.219 190.615 137.111 189.146 137.053C185.29 136.904 181.366 137.159 177.504 137.208L156.039 137.493L106.995 138.113C106.749 138.113 106.512 138.211 106.338 138.385C106.163 138.559 106.065 138.796 106.065 139.042C106.065 139.288 106.163 139.525 106.338 139.699C106.512 139.873 106.749 139.971 106.995 139.971L107.018 139.995Z" fill="#6C63FF"/>
<path d="M622.09 207.792L646.912 292.591C647.685 295.231 647.862 298.01 647.43 300.727C646.998 303.444 645.969 306.031 644.416 308.302C642.863 310.573 640.825 312.472 638.449 313.861C636.073 315.25 633.419 316.095 630.676 316.334L603.588 318.703L622.09 207.792Z" fill="#6C63FF"/>
<path opacity="0.1" d="M622.09 207.792L646.912 292.591C647.685 295.231 647.862 298.01 647.43 300.727C646.998 303.444 645.969 306.031 644.416 308.302C642.863 310.573 640.825 312.472 638.449 313.861C636.073 315.25 633.419 316.095 630.676 316.334L603.588 318.703L622.09 207.792Z" fill="black"/>
<path d="M396.796 192.148L429.997 247.024L445.63 227.229L415.077 179.424C415.594 176.366 415.497 173.235 414.79 170.215C414.084 167.194 412.784 164.345 410.964 161.832C404.168 152.078 392.111 148.727 384.03 154.349C375.949 159.971 374.913 172.435 381.709 182.189C383.436 184.766 385.659 186.974 388.249 188.684C390.839 190.394 393.743 191.571 396.792 192.148H396.796Z" fill="#ED9DA0"/>
<path d="M603.79 325.179L607.778 338.731L607.643 352.473C607.643 352.473 633.867 383.995 624.207 452.176L501.332 450.638L515.968 340.924L603.79 325.179Z" fill="#090814"/>
<path d="M421.988 190.409C434.289 190.221 457.032 229.678 457.032 229.678L475.716 223.075L514.134 209.481L543.583 197.366L543.454 198.255C543.57 197.975 543.696 197.696 543.834 197.411C546.931 191.033 555.923 183.536 581.451 185.022L593.474 194.506L595.109 195.805C600.266 195.529 605.424 196.332 610.252 198.163C615.722 200.359 621.192 204.457 623.774 212.119C625.114 216.07 625.114 224.24 624.31 234.619C621.403 272.201 607.846 352.094 607.846 352.094L522.284 340.774L515.973 340.922C515.973 340.922 515.223 332.308 514.552 321.033C514.138 314.416 513.762 306.906 513.547 299.671C513.399 294.37 513.36 289.224 513.453 284.698C513.467 284.418 513.467 284.138 513.48 283.854C513.734 275.59 514.565 269.604 516.349 268.945C516.349 268.945 510.815 268.798 502.827 268.503C483.53 267.78 449.891 266.159 445.095 263.547C438.315 259.864 402.759 210.43 402.759 210.43C402.759 210.43 409.674 190.608 421.986 190.407L421.988 190.409Z" fill="#6C63FF"/>
<path d="M451.637 456H662.089C662.631 455.903 663.033 454.811 663 453.553C663.035 452.31 662.634 451.212 662.089 451.115H451.637C451.158 451.252 450.78 452.128 450.725 453.237C450.645 454.589 451.051 455.824 451.637 456Z" fill="#6C63FF"/>
<path d="M122.875 169.89L166.113 168.648L178.35 168.296V167.068C171.123 167.928 163.947 169.175 156.853 170.804C155.099 171.207 153.351 171.634 151.608 172.084C150.687 172.254 149.781 172.495 148.897 172.805C148.71 172.862 148.544 172.97 148.418 173.118C148.291 173.266 148.209 173.446 148.181 173.639C147.995 175.035 149.983 174.847 150.824 174.969C152.571 175.23 154.292 175.641 155.968 176.197V175.015L153.896 175.69C153.266 175.826 152.663 176.067 152.113 176.402C151.786 176.665 151.55 177.023 151.438 177.427C151.326 177.831 151.343 178.26 151.488 178.654C151.888 179.775 152.917 179.95 153.974 179.995C154.764 180.028 154.763 178.801 153.974 178.768C153.354 178.742 152.14 178.509 152.688 177.565C152.881 177.233 153.369 177.151 153.708 177.04L156.296 176.197C156.422 176.158 156.533 176.08 156.612 175.974C156.69 175.867 156.733 175.738 156.733 175.606C156.733 175.474 156.69 175.345 156.612 175.238C156.533 175.132 156.422 175.053 156.296 175.015C154.857 174.538 153.386 174.167 151.894 173.904C151.287 173.799 150.675 173.712 150.06 173.644C149.875 173.622 149.688 173.602 149.502 173.585C149.497 173.873 149.598 173.956 149.806 173.833C150.14 173.801 150.467 173.714 150.774 173.575C153.8 172.771 156.844 172.038 159.907 171.375C166.003 170.063 172.15 169.036 178.35 168.295C179.111 168.204 179.16 167.045 178.35 167.068L135.112 168.311L122.875 168.664C122.716 168.669 122.565 168.737 122.455 168.851C122.345 168.965 122.283 169.118 122.283 169.277C122.283 169.436 122.345 169.588 122.455 169.703C122.565 169.817 122.716 169.884 122.875 169.89Z" fill="#6C63FF"/>
<path d="M601.918 207.813C601.918 207.813 596.757 220.453 580.649 216.688L547.973 209.053C547.973 209.053 592.905 149.527 579.654 154.087C566.404 158.648 544.593 119.258 544.593 119.258L531.355 133.567C531.355 133.567 512.165 120.338 540.591 107.707C540.591 107.707 574.31 93.3904 600.661 114.198C627.012 135.005 601.917 207.814 601.917 207.814L601.918 207.813Z" fill="#090814"/>
</g>
<defs>
<clipPath id="clip0_69_168">
<rect width="663" height="456" fill="white"/>
</clipPath>
</defs>
</svg>
